<svg width="512" height="512" viewBox="0 0 512 512" fill="none" xmlns="http://www.w3.org/2000/svg">
<path d="M512 267.378C512 194.156 479.619 128.393 428.476 83.5243C383.607 32.3812 317.844 0 244.622 0C109.739 0 0 109.739 0 244.622C0 317.827 32.3698 383.579 83.4958 428.447C128.364 479.608 194.139 512 267.378 512C267.856 512 268.322 511.966 268.8 511.966C269.278 511.966 269.744 512 270.222 512C403.752 512 512 403.752 512 270.222C512 269.744 511.966 269.278 511.966 268.8C511.966 268.322 512 267.856 512 267.378ZM95.7326 388.955C71.5833 354.947 57.2188 313.526 56.923 268.8C57.691 152.115 152.11 57.691 268.8 56.923C313.526 57.2188 354.953 71.5833 388.955 95.7326C427.941 133.535 452.267 186.357 452.267 244.622C452.267 359.117 359.117 452.267 244.622 452.267C186.357 452.267 133.535 427.941 95.7326 388.955ZM5.68889 244.622C5.68889 112.873 112.873 5.68889 244.622 5.68889C300.703 5.68889 352.29 25.1563 393.102 57.6284C356.335 35.51 313.321 22.7556 267.378 22.7556C132.494 22.7556 22.7556 132.494 22.7556 267.378C22.7556 313.31 35.5044 356.312 57.6114 393.074C25.1506 352.273 5.68889 300.692 5.68889 244.622ZM267.378 477.867C210.034 477.867 157.998 454.798 120.007 417.479C155.13 442.903 198.19 457.956 244.622 457.956C362.257 457.956 457.956 362.257 457.956 244.622C457.956 198.19 442.903 155.13 417.479 120.007C454.798 157.998 477.867 210.034 477.867 267.378C477.867 383.443 383.443 477.867 267.378 477.867Z" fill="url(#paint0_linear_264_67)"/>
<path d="M282.88 289.32C280.107 291.667 276.48 293.587 272 295.08C267.733 296.36 262.72 297 256.96 297C249.28 297 242.88 296.04 237.76 294.12C232.853 292.2 229.653 288.893 228.16 284.2C222.187 265.427 217.28 250.28 213.44 238.76C209.6 227.027 206.613 216.787 204.48 208.04H202.88C202.24 220.627 201.707 232.147 201.28 242.6C201.067 252.84 200.853 262.867 200.64 272.68C200.64 282.493 200.427 292.413 200 302.44C199.787 312.467 199.36 323.56 198.72 335.72C195.947 336.787 192.32 337.64 187.84 338.28C183.36 339.133 178.88 339.56 174.4 339.56C165.013 339.56 157.653 338.067 152.32 335.08C147.2 332.093 144.64 326.653 144.64 318.76L153.92 155.56C155.627 152.787 159.36 149.8 165.12 146.6C170.88 143.4 178.987 141.8 189.44 141.8C200.747 141.8 209.6 143.613 216 147.24C222.4 150.653 227.093 156.307 230.08 164.2C232 169.32 234.027 175.187 236.16 181.8C238.507 188.413 240.747 195.24 242.88 202.28C245.227 209.32 247.467 216.36 249.6 223.4C251.733 230.227 253.653 236.413 255.36 241.96H256.96C262.08 224.04 267.2 206.76 272.32 190.12C277.44 173.267 282.133 159.187 286.4 147.88C289.6 146.173 293.653 144.787 298.56 143.72C303.68 142.44 309.333 141.8 315.52 141.8C325.973 141.8 334.507 143.4 341.12 146.6C347.733 149.587 351.573 153.96 352.64 159.72C353.493 163.987 354.347 170.6 355.2 179.56C356.267 188.307 357.333 198.227 358.4 209.32C359.467 220.413 360.533 232.147 361.6 244.52C362.667 256.893 363.627 268.84 364.48 280.36C365.547 291.667 366.4 302.12 367.04 311.72C367.68 321.107 368.107 328.36 368.32 333.48C364.693 335.613 360.853 337.107 356.8 337.96C352.96 339.027 347.947 339.56 341.76 339.56C333.653 339.56 326.827 338.173 321.28 335.4C315.733 332.627 312.747 327.187 312.32 319.08C311.04 295.827 310.187 274.92 309.76 256.36C309.547 237.8 309.12 222.227 308.48 209.64H306.88C304.747 217.96 301.653 228.413 297.6 241C293.547 253.587 288.64 269.693 282.88 289.32Z" fill="url(#paint1_linear_264_67)"/>
<defs>
<linearGradient id="paint0_linear_264_67" x1="571" y1="-100" x2="256" y2="512" gradientUnits="userSpaceOnUse">
<stop stop-color="#939393"/>
<stop offset="1"/>
</linearGradient>
<linearGradient id="paint1_linear_264_67" x1="255.5" y1="1" x2="255.5" y2="511" gradientUnits="userSpaceOnUse">
<stop stop-color="#787878"/>
<stop offset="1"/>
</linearGradient>
</defs>
</svg>
