<svg width="266" height="80" viewBox="0 0 266 80" fill="currentColor" xmlns="http://www.w3.org/2000/svg">
<path d="M80 41.7778C80 30.3369 74.9404 20.0613 66.9493 13.0507C59.9387 5.05956 49.6631 0 38.2222 0C17.1467 0 0 17.1467 0 38.2222C0 49.6604 5.05778 59.9342 13.0462 66.9449C20.0569 74.9387 30.3342 80 41.7778 80C41.8524 80 41.9253 79.9947 42 79.9947C42.0747 79.9947 42.1476 80 42.2222 80C63.0862 80 80 63.0862 80 42.2222C80 42.1476 79.9947 42.0747 79.9947 42C79.9947 41.9253 80 41.8524 80 41.7778ZM14.9582 60.7742C11.1849 55.4604 8.94044 48.9884 8.89422 42C9.01422 23.768 23.7671 9.01422 42 8.89422C48.9884 8.94044 55.4613 11.1849 60.7742 14.9582C66.8658 20.8649 70.6667 29.1182 70.6667 38.2222C70.6667 56.112 56.112 70.6667 38.2222 70.6667C29.1182 70.6667 20.8649 66.8658 14.9582 60.7742ZM0.888889 38.2222C0.888889 17.6364 17.6364 0.888889 38.2222 0.888889C46.9849 0.888889 55.0453 3.93067 61.4222 9.00444C55.6773 5.54844 48.9564 3.55556 41.7778 3.55556C20.7022 3.55556 3.55556 20.7022 3.55556 41.7778C3.55556 48.9547 5.54756 55.6738 9.00178 61.4178C3.92978 55.0427 0.888889 46.9831 0.888889 38.2222ZM41.7778 74.6667C32.8178 74.6667 24.6871 71.0622 18.7511 65.2311C24.2391 69.2036 30.9671 71.5556 38.2222 71.5556C56.6027 71.5556 71.5556 56.6027 71.5556 38.2222C71.5556 30.9671 69.2036 24.2391 65.2311 18.7511C71.0622 24.6871 74.6667 32.8178 74.6667 41.7778C74.6667 59.9129 59.9129 74.6667 41.7778 74.6667Z" fill="currentColor"/>
<path d="M96 60.9137C96.0424 59.8047 96.3282 58.5891 96.8576 57.2668C97.387 55.9446 98.0117 54.8996 98.7317 54.1318C102.12 55.9233 105.063 56.819 107.562 56.819C108.748 56.819 109.658 56.6164 110.294 56.2112C110.929 55.806 111.247 55.2622 111.247 54.5797C111.247 53.3001 110.273 52.3404 108.324 51.7006L104.83 50.3571C99.5364 48.395 96.8894 45.196 96.8894 40.7601C96.8894 37.5185 98.0011 34.9486 100.225 33.0506C102.448 31.1525 105.444 30.2035 109.214 30.2035C111.077 30.2035 113.131 30.4701 115.376 31.0032C117.621 31.5364 119.463 32.1655 120.903 32.8906C120.988 34.0849 120.755 35.3965 120.204 36.8254C119.653 38.2542 118.976 39.2673 118.171 39.8644C114.614 38.2436 111.649 37.4332 109.277 37.4332C108.43 37.4332 107.784 37.6251 107.34 38.009C106.895 38.3929 106.673 38.8834 106.673 39.4805C106.673 40.5042 107.477 41.3146 109.087 41.9117L113.025 43.3193C118.658 45.324 121.475 48.7576 121.475 53.62C121.475 56.819 120.31 59.3569 117.981 61.2336C115.651 63.1103 112.327 64.0487 108.007 64.0487C103.687 64.0487 99.6846 63.0037 96 60.9137ZM145.234 31.0992C145.488 32.2935 145.615 33.4878 145.615 34.682C145.615 35.8763 145.488 37.0493 145.234 38.2009L137.674 38.073V52.7883C137.674 54.793 138.606 55.7953 140.469 55.7953H144.027C144.577 57.3308 144.853 58.7384 144.853 60.018C144.853 61.2976 144.768 62.2146 144.599 62.7691C141.465 63.1956 138.585 63.4089 135.959 63.4089C130.623 63.4089 127.954 60.4445 127.954 54.5157V38.1369L122.999 38.2009C122.703 37.1346 122.555 35.9723 122.555 34.714C122.555 33.4558 122.703 32.2508 122.999 31.0992L127.954 31.2271V27.5163C127.954 25.341 128.367 23.7948 129.193 22.8778C130.019 21.9608 131.406 21.5022 133.354 21.5022H137.229L137.674 21.9501V31.2271L145.234 31.0992ZM150.316 52.2764V39.1606C150.316 36.3882 149.808 34.2555 148.791 32.7627C150.358 31.3551 152.264 30.6513 154.509 30.6513C156.754 30.6513 158.278 31.1632 159.083 32.1868C159.888 33.2105 160.29 34.7674 160.29 36.8574V50.421C160.29 51.9139 160.459 53.0015 160.798 53.684C161.137 54.3664 162.026 54.7077 163.466 54.7077C164.864 54.7077 166.283 53.9826 167.723 52.5324V31.1632C169.12 30.9073 170.751 30.7793 172.614 30.7793C174.478 30.7793 176.151 30.9073 177.633 31.1632V53.9399C177.633 56.2432 178.226 57.8 179.412 58.6104C179.2 59.4635 178.798 60.3912 178.205 61.3935C177.612 62.3959 176.998 63.1316 176.362 63.6008C172.89 63.4729 170.391 61.98 168.866 59.1223C165.52 62.1506 162.365 63.6648 159.401 63.6648C156.436 63.6648 154.181 62.6305 152.635 60.5618C151.089 58.4931 150.316 55.7313 150.316 52.2764ZM196.31 30.5234C198.343 30.5234 200.312 30.9926 202.218 31.9309V16.4479L202.599 16H206.475C208.507 16 209.916 16.4479 210.699 17.3436C211.483 18.2393 211.874 19.7961 211.874 22.0141V53.8759C211.874 56.1365 212.467 57.6721 213.653 58.4825C213.441 59.3782 213.039 60.3379 212.446 61.3615C211.853 62.3852 211.239 63.1316 210.604 63.6008C207.512 63.5155 205.246 62.3212 203.806 60.018C201.265 62.7051 198.216 64.0487 194.658 64.0487C191.101 64.0487 188.369 62.5558 186.463 59.5701C184.558 56.5844 183.605 52.4897 183.605 47.286C183.605 44.7268 183.933 42.4129 184.589 40.3442C185.246 38.2756 186.146 36.5161 187.289 35.0659C188.433 33.6157 189.777 32.4961 191.323 31.707C192.869 30.9179 194.531 30.5234 196.31 30.5234ZM197.581 55.9873C199.317 55.9873 200.863 55.1555 202.218 53.4921V39.4805C200.482 38.4568 199.105 37.945 198.089 37.945C195.209 37.945 193.769 41.144 193.769 47.542C193.769 53.1722 195.04 55.9873 197.581 55.9873ZM231.06 38.5208V63.089C230.34 63.217 229.556 63.3129 228.709 63.3769C227.862 63.4409 226.994 63.4729 226.105 63.4729C225.215 63.4729 224.336 63.4409 223.468 63.3769C222.6 63.3129 221.806 63.217 221.086 63.089V41.9117C221.086 39.4379 220.091 38.2009 218.1 38.2009H217.147C216.893 37.3905 216.766 36.2602 216.766 34.81C216.766 33.4025 216.893 32.2082 217.147 31.2271C218.248 31.1418 219.265 31.0672 220.197 31.0032C221.128 30.9392 221.975 30.9072 222.738 30.9072H224.135C226.295 30.9072 227.989 31.5897 229.218 32.9546C230.446 34.3195 231.06 36.1749 231.06 38.5208ZM219.942 18.3033C221.171 17.6208 222.759 17.2796 224.707 17.2796C226.698 17.2796 228.243 17.6208 229.345 18.3033C229.853 19.4549 230.107 20.6918 230.107 22.0141C230.107 23.3363 229.853 24.5733 229.345 25.7249C228.116 26.3647 226.507 26.6846 224.516 26.6846C222.526 26.6846 221.001 26.3647 219.942 25.7249C219.434 24.5733 219.18 23.3363 219.18 22.0141C219.18 20.6918 219.434 19.4549 219.942 18.3033ZM261.426 33.9783C264.475 37.0493 266 41.4426 266 47.1581C266 49.7173 265.672 52.0418 265.015 54.1318C264.359 56.2219 263.406 58.0026 262.157 59.4741C260.907 60.9457 259.372 62.076 257.551 62.8651C255.73 63.6541 253.633 64.0487 251.262 64.0487C248.89 64.0487 246.804 63.6435 245.004 62.8331C243.204 62.0227 241.68 60.8817 240.43 59.4102C239.181 57.9386 238.238 56.1579 237.603 54.0679C236.968 51.9779 236.65 49.6746 236.65 47.1581C236.65 44.5989 236.968 42.285 237.603 40.2163C238.238 38.1476 239.17 36.3668 240.398 34.874C241.627 33.3811 243.151 32.2295 244.972 31.4191C246.793 30.6087 248.89 30.2035 251.262 30.2035C255.454 30.2035 258.843 31.4617 261.426 33.9783ZM251.325 37.6891C250.393 37.6891 249.642 37.913 249.07 38.3609C248.498 38.8087 248.043 39.4165 247.704 40.1843C247.365 40.9521 247.132 41.8371 247.005 42.8394C246.878 43.8418 246.815 44.9188 246.815 46.0704C246.815 47.8618 246.868 49.408 246.973 50.7089C247.079 52.0099 247.291 53.0975 247.609 53.9719C247.926 54.8463 248.371 55.4967 248.943 55.9233C249.515 56.3498 250.266 56.5631 251.198 56.5631C253.062 56.5631 254.29 55.742 254.883 54.0999C255.476 52.4577 255.772 50.1225 255.772 47.0941C255.772 44.0231 255.476 41.6878 254.883 40.0883C254.29 38.4888 253.104 37.6891 251.325 37.6891Z" fill="currentColor"/>
</svg>
