<svg width="339" height="96" viewBox="0 0 339 96" fill="currentColor" xmlns="http://www.w3.org/2000/svg">
<path d="M88 49.7778C88 38.3369 82.9404 28.0613 74.9493 21.0507C67.9387 13.0596 57.6631 8 46.2222 8C25.1467 8 8 25.1467 8 46.2222C8 57.6604 13.0578 67.9342 21.0462 74.9449C28.0569 82.9387 38.3342 88 49.7778 88C49.8524 88 49.9253 87.9947 50 87.9947C50.0747 87.9947 50.1476 88 50.2222 88C71.0862 88 88 71.0862 88 50.2222C88 50.1476 87.9947 50.0747 87.9947 50C87.9947 49.9253 88 49.8524 88 49.7778ZM22.9582 68.7742C19.1849 63.4604 16.9404 56.9884 16.8942 50C17.0142 31.768 31.7671 17.0142 50 16.8942C56.9884 16.9404 63.4613 19.1849 68.7742 22.9582C74.8658 28.8649 78.6667 37.1182 78.6667 46.2222C78.6667 64.112 64.112 78.6667 46.2222 78.6667C37.1182 78.6667 28.8649 74.8658 22.9582 68.7742ZM8.88889 46.2222C8.88889 25.6364 25.6364 8.88889 46.2222 8.88889C54.9849 8.88889 63.0453 11.9307 69.4222 17.0044C63.6773 13.5484 56.9564 11.5556 49.7778 11.5556C28.7022 11.5556 11.5556 28.7022 11.5556 49.7778C11.5556 56.9547 13.5476 63.6738 17.0018 69.4178C11.9298 63.0427 8.88889 54.9831 8.88889 46.2222ZM49.7778 82.6667C40.8178 82.6667 32.6871 79.0622 26.7511 73.2311C32.2391 77.2036 38.9671 79.5556 46.2222 79.5556C64.6027 79.5556 79.5556 64.6027 79.5556 46.2222C79.5556 38.9671 77.2036 32.2391 73.2311 26.7511C79.0622 32.6871 82.6667 40.8178 82.6667 49.7778C82.6667 67.9129 67.9129 82.6667 49.7778 82.6667Z" fill="currentColor"/>
<path d="M104 75.8242C104.056 74.3471 104.437 72.7279 105.142 70.9667C105.847 69.2055 106.68 67.8136 107.639 66.791C112.152 69.1771 116.072 70.3702 119.4 70.3702C120.98 70.3702 122.193 70.1003 123.039 69.5606C123.885 69.0209 124.308 68.2965 124.308 67.3875C124.308 65.6831 123.011 64.4048 120.416 63.5526L115.762 61.763C108.71 59.1496 105.185 54.8886 105.185 48.98C105.185 44.6622 106.665 41.2392 109.627 38.7111C112.589 36.1829 116.58 34.9188 121.6 34.9188C124.083 34.9188 126.819 35.2739 129.808 35.984C132.798 36.6942 135.252 37.5322 137.17 38.498C137.283 40.0888 136.973 41.8358 136.239 43.739C135.506 45.6423 134.603 46.9916 133.532 47.787C128.793 45.6281 124.844 44.5486 121.685 44.5486C120.557 44.5486 119.697 44.8043 119.104 45.3156C118.512 45.8269 118.216 46.4803 118.216 47.2756C118.216 48.6392 119.288 49.7186 121.431 50.514L126.678 52.3888C134.18 55.059 137.932 59.6325 137.932 66.1092C137.932 70.3702 136.38 73.7506 133.278 76.2503C130.175 78.7501 125.747 80 119.993 80C114.239 80 108.908 78.6081 104 75.8242ZM169.579 36.1119C169.917 37.7026 170.086 39.2934 170.086 40.8842C170.086 42.4749 169.917 44.0373 169.579 45.5712L159.509 45.4008V65.0013C159.509 67.6716 160.75 69.0067 163.232 69.0067H167.971C168.704 71.0519 169.071 72.9268 169.071 74.6312C169.071 76.3356 168.958 77.557 168.733 78.2956C164.558 78.8637 160.722 79.1478 157.225 79.1478C150.117 79.1478 146.563 75.1993 146.563 67.3023V45.486L139.963 45.5712C139.568 44.1509 139.37 42.6028 139.37 40.9268C139.37 39.2508 139.568 37.6458 139.963 36.1119L146.563 36.2823V31.3395C146.563 28.4421 147.113 26.3826 148.213 25.1611C149.313 23.9396 151.16 23.3289 153.755 23.3289H158.917L159.509 23.9254V36.2823L169.579 36.1119ZM176.348 64.3196V46.8495C176.348 43.1567 175.671 40.316 174.317 38.3276C176.405 36.4527 178.943 35.5153 181.933 35.5153C184.923 35.5153 186.954 36.1971 188.025 37.5606C189.097 38.9241 189.633 40.9978 189.633 43.7816V61.8482C189.633 63.8367 189.859 65.2854 190.31 66.1944C190.761 67.1034 191.946 67.5579 193.864 67.5579C195.726 67.5579 197.615 66.5921 199.533 64.6605V36.1971C201.395 35.8562 203.567 35.6858 206.049 35.6858C208.531 35.6858 210.759 35.8562 212.734 36.1971V66.5353C212.734 69.6032 213.524 71.6769 215.103 72.7563C214.821 73.8926 214.285 75.1283 213.495 76.4634C212.706 77.7985 211.888 78.7785 211.041 79.4035C206.416 79.233 203.087 77.2446 201.057 73.4381C196.6 77.4718 192.397 79.4887 188.448 79.4887C184.5 79.4887 181.496 78.111 179.437 75.3555C177.378 72.6001 176.348 68.9214 176.348 64.3196ZM237.611 35.3449C240.319 35.3449 242.942 35.9698 245.481 37.2197V16.5965L245.989 16H251.15C253.858 16 255.734 16.5965 256.777 17.7896C257.821 18.9827 258.343 21.0564 258.343 24.0107V66.4501C258.343 69.4612 259.133 71.5064 260.712 72.5859C260.43 73.779 259.894 75.0573 259.104 76.4208C258.314 77.7843 257.497 78.7785 256.65 79.4035C252.532 79.2898 249.514 77.6991 247.596 74.6312C244.212 78.2104 240.15 80 235.411 80C230.673 80 227.034 78.0115 224.496 74.0346C221.957 70.0577 220.688 64.6036 220.688 57.6724C220.688 54.2637 221.125 51.1815 221.999 48.4261C222.874 45.6707 224.073 43.3271 225.596 41.3955C227.119 39.4638 228.91 37.9725 230.969 36.9214C233.028 35.8704 235.242 35.3449 237.611 35.3449ZM239.304 69.2623C241.617 69.2623 243.676 68.1545 245.481 65.9388V47.2756C243.168 45.9121 241.335 45.2304 239.981 45.2304C236.145 45.2304 234.227 49.4914 234.227 58.0133C234.227 65.5127 235.919 69.2623 239.304 69.2623ZM283.897 45.9973V78.7217C282.938 78.8922 281.895 79.02 280.766 79.1052C279.638 79.1904 278.482 79.233 277.297 79.233C276.112 79.233 274.942 79.1904 273.785 79.1052C272.629 79.02 271.571 78.8922 270.612 78.7217V50.514C270.612 47.2188 269.287 45.5712 266.635 45.5712H265.366C265.027 44.4918 264.858 42.9862 264.858 41.0546C264.858 39.1798 265.027 37.589 265.366 36.2823C266.833 36.1687 268.187 36.0692 269.428 35.984C270.669 35.8988 271.797 35.8562 272.812 35.8562H274.674C277.551 35.8562 279.807 36.7652 281.443 38.5832C283.079 40.4012 283.897 42.8726 283.897 45.9973ZM269.089 19.0679C270.725 18.1589 272.841 17.7044 275.436 17.7044C278.087 17.7044 280.146 18.1589 281.613 19.0679C282.29 20.6019 282.628 22.2494 282.628 24.0107C282.628 25.7719 282.29 27.4194 281.613 28.9534C279.977 29.8056 277.833 30.2317 275.182 30.2317C272.53 30.2317 270.499 29.8056 269.089 28.9534C268.412 27.4194 268.074 25.7719 268.074 24.0107C268.074 22.2494 268.412 20.6019 269.089 19.0679ZM324.345 39.9467C328.406 44.0373 330.437 49.889 330.437 57.502C330.437 60.9108 330 64.0071 329.125 66.791C328.251 69.5748 326.982 71.9467 325.318 73.9068C323.653 75.8669 321.609 77.3724 319.183 78.4234C316.757 79.4745 313.965 80 310.806 80C307.647 80 304.868 79.4603 302.471 78.3808C300.073 77.3014 298.043 75.7816 296.378 73.8216C294.714 71.8615 293.459 69.4896 292.613 66.7057C291.767 63.9219 291.344 60.854 291.344 57.502C291.344 54.0932 291.767 51.0111 292.613 48.2557C293.459 45.5002 294.7 43.1283 296.336 41.1398C297.972 39.1514 300.003 37.6174 302.429 36.538C304.854 35.4585 307.647 34.9188 310.806 34.9188C316.39 34.9188 320.903 36.5948 324.345 39.9467ZM310.89 44.8895C309.649 44.8895 308.648 45.1878 307.886 45.7843C307.125 46.3808 306.518 47.1904 306.067 48.2131C305.616 49.2357 305.306 50.4146 305.136 51.7497C304.967 53.0848 304.882 54.5193 304.882 56.0533C304.882 58.4394 304.953 60.4989 305.094 62.2317C305.235 63.9645 305.517 65.4132 305.94 66.5779C306.363 67.7426 306.956 68.609 307.717 69.1771C308.479 69.7452 309.48 70.0293 310.721 70.0293C313.203 70.0293 314.839 68.9356 315.629 66.7483C316.419 64.561 316.814 61.4505 316.814 57.4168C316.814 53.3262 316.419 50.2157 315.629 48.0852C314.839 45.9547 313.26 44.8895 310.89 44.8895Z" fill="currentColor"/>
</svg>
