<svg width="236" height="253" viewBox="0 0 236 253" fill="none" xmlns="http://www.w3.org/2000/svg">
<rect width="236" height="253" rx="8" fill="#E7E7E7"/>
<path d="M36.562 26.188C36.812 25.5 36.875 24.812 36.812 24.125C36.75 23.437 36.5 22.75 36.187 22.125C35.625 21.187 34.812 20.437 33.875 20C32.875 19.562 31.812 19.437 30.75 19.687C30.25 19.187 29.687 18.75 29.062 18.437C28.437 18.126 27.687 18 27 18C25.9269 17.9937 24.8784 18.3216 24 18.938C23.125 19.562 22.5 20.438 22.187 21.438C21.437 21.625 20.812 21.938 20.187 22.313C19.625 22.75 19.187 23.313 18.812 23.875C18.25 24.813 18.062 25.875 18.187 26.938C18.3126 27.9979 18.7473 28.9974 19.437 29.812C19.2006 30.4724 19.1152 31.1773 19.187 31.875C19.25 32.563 19.5 33.25 19.812 33.875C20.375 34.813 21.187 35.563 22.125 36C23.125 36.438 24.187 36.563 25.25 36.313C25.75 36.813 26.312 37.25 26.937 37.563C27.562 37.875 28.312 38 29 38C30.0731 38.0063 31.1216 37.6784 32 37.062C32.875 36.437 33.5 35.562 33.812 34.562C34.5181 34.4277 35.1823 34.1279 35.75 33.687C36.312 33.25 36.812 32.75 37.125 32.125C37.687 31.187 37.875 30.125 37.75 29.062C37.625 28 37.25 27 36.562 26.188ZM29.062 36.688C28.062 36.688 27.312 36.375 26.625 35.813C26.625 35.813 26.687 35.75 26.75 35.75L30.75 33.437C30.8616 33.3878 30.9508 33.2986 31 33.187C31.062 33.062 31.062 33 31.062 32.875V27.25L32.75 28.25V32.875C32.7672 33.3698 32.6845 33.8631 32.5068 34.3252C32.3292 34.7874 32.0602 35.209 31.716 35.5649C31.3717 35.9208 30.9593 36.2037 30.5033 36.3966C30.0473 36.5896 29.5571 36.6887 29.062 36.688ZM21 33.25C20.562 32.5 20.375 31.625 20.562 30.75C20.562 30.75 20.625 30.813 20.687 30.813L24.687 33.125C24.7831 33.1758 24.8918 33.1976 25 33.188C25.125 33.188 25.25 33.188 25.312 33.125L30.187 30.312V32.25L26.125 34.625C25.2741 35.1179 24.2623 35.2527 23.312 35C22.312 34.75 21.5 34.125 21 33.25ZM19.937 24.562C20.3791 23.8157 21.0628 23.2427 21.875 22.938V27.688C21.875 27.812 21.875 27.938 21.937 28C21.9861 28.1116 22.0753 28.2008 22.187 28.25L27.062 31.063L25.375 32.063L21.375 29.75C20.9489 29.5094 20.5748 29.1867 20.2744 28.8004C19.974 28.4142 19.7533 27.9722 19.625 27.5C19.375 26.562 19.437 25.437 19.937 24.562ZM33.75 27.75L28.875 24.937L30.562 23.937L34.562 26.25C35.187 26.625 35.687 27.125 36 27.75C36.312 28.375 36.5 29.063 36.437 29.813C36.3761 30.5168 36.1159 31.1887 35.687 31.75C35.25 32.313 34.687 32.75 34 33V28.25C34 28.125 34 28 33.937 27.937C33.937 27.937 33.875 27.813 33.75 27.75ZM35.437 25.25C35.437 25.25 35.375 25.187 35.312 25.187L31.312 22.875C31.187 22.812 31.125 22.812 31 22.812C30.875 22.812 30.75 22.812 30.687 22.875L25.812 25.688V23.75L29.875 21.375C30.5 21 31.187 20.875 31.937 20.875C32.625 20.875 33.312 21.125 33.937 21.563C34.5 22 35 22.563 35.25 23.188C35.5 23.813 35.562 24.563 35.437 25.25ZM24.937 28.75L23.25 27.75V23.062C23.25 22.375 23.437 21.625 23.812 21.062C24.187 20.438 24.75 20 25.375 19.688C26.0119 19.3683 26.734 19.259 27.437 19.376C28.125 19.439 28.812 19.751 29.375 20.189C29.375 20.189 29.312 20.251 29.25 20.251L25.25 22.564C25.1383 22.6132 25.0491 22.7023 25 22.814C24.937 22.939 24.937 23.001 24.937 23.126V28.751V28.75ZM25.812 26.75L28 25.5L30.187 26.75V29.25L28 30.5L25.812 29.25V26.75Z" fill="black"/>
<path d="M52.752 32.144C51.912 32.144 51.176 31.96 50.544 31.592C49.92 31.224 49.428 30.716 49.068 30.068C48.716 29.412 48.54 28.656 48.54 27.8C48.54 26.944 48.716 26.192 49.068 25.544C49.428 24.888 49.92 24.376 50.544 24.008C51.176 23.64 51.912 23.456 52.752 23.456C53.584 23.456 54.316 23.64 54.948 24.008C55.58 24.376 56.072 24.888 56.424 25.544C56.776 26.192 56.952 26.944 56.952 27.8C56.952 28.656 56.776 29.412 56.424 30.068C56.072 30.716 55.58 31.224 54.948 31.592C54.316 31.96 53.584 32.144 52.752 32.144ZM52.752 30.764C53.552 30.764 54.188 30.5 54.66 29.972C55.14 29.444 55.38 28.72 55.38 27.8C55.38 26.88 55.14 26.156 54.66 25.628C54.188 25.1 53.552 24.836 52.752 24.836C51.952 24.836 51.312 25.1 50.832 25.628C50.352 26.156 50.112 26.88 50.112 27.8C50.112 28.72 50.352 29.444 50.832 29.972C51.312 30.5 51.952 30.764 52.752 30.764ZM58.2722 34.64V26.048H59.6402L59.8082 26.9C60.0002 26.636 60.2522 26.404 60.5642 26.204C60.8842 26.004 61.2962 25.904 61.8002 25.904C62.3602 25.904 62.8602 26.04 63.3002 26.312C63.7402 26.584 64.0882 26.956 64.3442 27.428C64.6002 27.9 64.7282 28.436 64.7282 29.036C64.7282 29.636 64.6002 30.172 64.3442 30.644C64.0882 31.108 63.7402 31.476 63.3002 31.748C62.8602 32.012 62.3602 32.144 61.8002 32.144C61.3522 32.144 60.9602 32.06 60.6242 31.892C60.2882 31.724 60.0162 31.488 59.8082 31.184V34.64H58.2722ZM61.4762 30.8C61.9642 30.8 62.3682 30.636 62.6882 30.308C63.0082 29.98 63.1682 29.556 63.1682 29.036C63.1682 28.516 63.0082 28.088 62.6882 27.752C62.3682 27.416 61.9642 27.248 61.4762 27.248C60.9802 27.248 60.5722 27.416 60.2522 27.752C59.9402 28.08 59.7842 28.504 59.7842 29.024C59.7842 29.544 59.9402 29.972 60.2522 30.308C60.5722 30.636 60.9802 30.8 61.4762 30.8ZM68.9923 32.144C68.3923 32.144 67.8603 32.016 67.3963 31.76C66.9323 31.504 66.5683 31.144 66.3043 30.68C66.0403 30.216 65.9083 29.68 65.9083 29.072C65.9083 28.456 66.0363 27.908 66.2923 27.428C66.5563 26.948 66.9163 26.576 67.3723 26.312C67.8363 26.04 68.3803 25.904 69.0043 25.904C69.5883 25.904 70.1043 26.032 70.5523 26.288C71.0003 26.544 71.3483 26.896 71.5963 27.344C71.8523 27.784 71.9803 28.276 71.9803 28.82C71.9803 28.908 71.9763 29 71.9683 29.096C71.9683 29.192 71.9643 29.292 71.9563 29.396H67.4323C67.4643 29.86 67.6243 30.224 67.9123 30.488C68.2083 30.752 68.5643 30.884 68.9803 30.884C69.2923 30.884 69.5523 30.816 69.7603 30.68C69.9763 30.536 70.1363 30.352 70.2403 30.128H71.8003C71.6883 30.504 71.5003 30.848 71.2363 31.16C70.9803 31.464 70.6603 31.704 70.2763 31.88C69.9003 32.056 69.4723 32.144 68.9923 32.144ZM69.0043 27.152C68.6283 27.152 68.2963 27.26 68.0083 27.476C67.7203 27.684 67.5363 28.004 67.4563 28.436H70.4203C70.3963 28.044 70.2523 27.732 69.9883 27.5C69.7243 27.268 69.3963 27.152 69.0043 27.152ZM73.2722 32V26.048H74.6282L74.7482 27.056C74.9322 26.704 75.1962 26.424 75.5402 26.216C75.8922 26.008 76.3042 25.904 76.7762 25.904C77.5122 25.904 78.0842 26.136 78.4922 26.6C78.9002 27.064 79.1042 27.744 79.1042 28.64V32H77.5682V28.784C77.5682 28.272 77.4642 27.88 77.2562 27.608C77.0482 27.336 76.7242 27.2 76.2842 27.2C75.8522 27.2 75.4962 27.352 75.2162 27.656C74.9442 27.96 74.8082 28.384 74.8082 28.928V32H73.2722ZM82.9283 32L86.0003 23.6H87.7283L90.8003 32H89.1683L88.4963 30.056H85.2203L84.5363 32H82.9283ZM85.6403 28.856H88.0763L86.8523 25.364L85.6403 28.856ZM91.8824 32V23.6H93.4184V32H91.8824Z" fill="#333333"/>
<path d="M16.816 60V51.6H18.352V58.8H22.072V60H16.816ZM26.0118 60.144C25.4118 60.144 24.8798 60.016 24.4158 59.76C23.9518 59.504 23.5878 59.144 23.3238 58.68C23.0598 58.216 22.9278 57.68 22.9278 57.072C22.9278 56.456 23.0558 55.908 23.3118 55.428C23.5758 54.948 23.9358 54.576 24.3918 54.312C24.8558 54.04 25.3998 53.904 26.0238 53.904C26.6078 53.904 27.1238 54.032 27.5718 54.288C28.0198 54.544 28.3678 54.896 28.6158 55.344C28.8718 55.784 28.9998 56.276 28.9998 56.82C28.9998 56.908 28.9958 57 28.9878 57.096C28.9878 57.192 28.9838 57.292 28.9758 57.396H24.4518C24.4838 57.86 24.6438 58.224 24.9318 58.488C25.2278 58.752 25.5838 58.884 25.9998 58.884C26.3118 58.884 26.5718 58.816 26.7798 58.68C26.9958 58.536 27.1558 58.352 27.2598 58.128H28.8198C28.7078 58.504 28.5198 58.848 28.2558 59.16C27.9998 59.464 27.6798 59.704 27.2958 59.88C26.9198 60.056 26.4918 60.144 26.0118 60.144ZM26.0238 55.152C25.6478 55.152 25.3158 55.26 25.0278 55.476C24.7398 55.684 24.5558 56.004 24.4758 56.436H27.4398C27.4158 56.044 27.2718 55.732 27.0078 55.5C26.7438 55.268 26.4158 55.152 26.0238 55.152ZM32.8383 60C32.2143 60 31.7143 59.848 31.3383 59.544C30.9623 59.24 30.7743 58.7 30.7743 57.924V55.332H29.7543V54.048H30.7743L30.9543 52.452H32.3103V54.048H33.9183V55.332H32.3103V57.936C32.3103 58.224 32.3703 58.424 32.4902 58.536C32.6183 58.64 32.8343 58.692 33.1383 58.692H33.8823V60H32.8383ZM34.949 54.552L35.609 51.6H37.229L36.005 54.552H34.949ZM40.2517 60.144C39.7237 60.144 39.2597 60.06 38.8597 59.892C38.4597 59.716 38.1397 59.476 37.8997 59.172C37.6597 58.868 37.5157 58.516 37.4677 58.116H39.0157C39.0637 58.348 39.1917 58.548 39.3997 58.716C39.6157 58.876 39.8917 58.956 40.2277 58.956C40.5637 58.956 40.8077 58.888 40.9597 58.752C41.1197 58.616 41.1997 58.46 41.1997 58.284C41.1997 58.028 41.0877 57.856 40.8637 57.768C40.6397 57.672 40.3277 57.58 39.9277 57.492C39.6717 57.436 39.4117 57.368 39.1477 57.288C38.8837 57.208 38.6397 57.108 38.4157 56.988C38.1997 56.86 38.0237 56.7 37.8877 56.508C37.7517 56.308 37.6837 56.064 37.6837 55.776C37.6837 55.248 37.8917 54.804 38.3077 54.444C38.7317 54.084 39.3237 53.904 40.0837 53.904C40.7877 53.904 41.3477 54.068 41.7637 54.396C42.1877 54.724 42.4397 55.176 42.5197 55.752H41.0677C40.9797 55.312 40.6477 55.092 40.0717 55.092C39.7837 55.092 39.5597 55.148 39.3997 55.26C39.2477 55.372 39.1717 55.512 39.1717 55.68C39.1717 55.856 39.2877 55.996 39.5197 56.1C39.7517 56.204 40.0597 56.3 40.4437 56.388C40.8597 56.484 41.2397 56.592 41.5837 56.712C41.9357 56.824 42.2157 56.996 42.4237 57.228C42.6317 57.452 42.7357 57.776 42.7357 58.2C42.7437 58.568 42.6477 58.9 42.4477 59.196C42.2477 59.492 41.9597 59.724 41.5837 59.892C41.2077 60.06 40.7637 60.144 40.2517 60.144ZM46.9558 60V51.36H48.4918V60H46.9558ZM52.9533 60.144C52.3533 60.144 51.8213 60.016 51.3573 59.76C50.8933 59.504 50.5293 59.144 50.2653 58.68C50.0013 58.216 49.8693 57.68 49.8693 57.072C49.8693 56.456 49.9973 55.908 50.2533 55.428C50.5173 54.948 50.8773 54.576 51.3333 54.312C51.7973 54.04 52.3413 53.904 52.9653 53.904C53.5493 53.904 54.0653 54.032 54.5133 54.288C54.9613 54.544 55.3093 54.896 55.5573 55.344C55.8133 55.784 55.9413 56.276 55.9413 56.82C55.9413 56.908 55.9373 57 55.9293 57.096C55.9293 57.192 55.9253 57.292 55.9173 57.396H51.3933C51.4253 57.86 51.5853 58.224 51.8733 58.488C52.1693 58.752 52.5253 58.884 52.9413 58.884C53.2533 58.884 53.5133 58.816 53.7213 58.68C53.9373 58.536 54.0973 58.352 54.2013 58.128H55.7613C55.6493 58.504 55.4613 58.848 55.1973 59.16C54.9413 59.464 54.6213 59.704 54.2373 59.88C53.8613 60.056 53.4333 60.144 52.9533 60.144ZM52.9653 55.152C52.5893 55.152 52.2573 55.26 51.9693 55.476C51.6813 55.684 51.4973 56.004 51.4173 56.436H54.3813C54.3573 56.044 54.2133 55.732 53.9493 55.5C53.6853 55.268 53.3573 55.152 52.9653 55.152ZM59.2851 60.144C58.7731 60.144 58.3531 60.064 58.0251 59.904C57.6971 59.736 57.4531 59.516 57.2931 59.244C57.1331 58.972 57.0531 58.672 57.0531 58.344C57.0531 57.792 57.2691 57.344 57.7011 57C58.1331 56.656 58.7811 56.484 59.6451 56.484H61.1571V56.34C61.1571 55.932 61.0411 55.632 60.8091 55.44C60.5771 55.248 60.2891 55.152 59.9451 55.152C59.6331 55.152 59.3611 55.228 59.1291 55.38C58.8971 55.524 58.7531 55.74 58.6971 56.028H57.1971C57.2371 55.596 57.3811 55.22 57.6291 54.9C57.8851 54.58 58.2131 54.336 58.6131 54.168C59.0131 53.992 59.4611 53.904 59.9571 53.904C60.8051 53.904 61.4731 54.116 61.9611 54.54C62.4491 54.964 62.6931 55.564 62.6931 56.34V60H61.3851L61.2411 59.04C61.0651 59.36 60.8171 59.624 60.4971 59.832C60.1851 60.04 59.7811 60.144 59.2851 60.144ZM59.6331 58.944C60.0731 58.944 60.4131 58.8 60.6531 58.512C60.9011 58.224 61.0571 57.868 61.1211 57.444H59.8131C59.4051 57.444 59.1131 57.52 58.9371 57.672C58.7611 57.816 58.6731 57.996 58.6731 58.212C58.6731 58.444 58.7611 58.624 58.9371 58.752C59.1131 58.88 59.3451 58.944 59.6331 58.944ZM64.1589 60V54.048H65.5269L65.6709 55.164C65.8869 54.78 66.1789 54.476 66.5469 54.252C66.9229 54.02 67.3629 53.904 67.8669 53.904V55.524H67.4349C67.0989 55.524 66.7989 55.576 66.5349 55.68C66.2709 55.784 66.0629 55.964 65.9109 56.22C65.7669 56.476 65.6949 56.832 65.6949 57.288V60H64.1589ZM68.9167 60V54.048H70.2727L70.3927 55.056C70.5767 54.704 70.8407 54.424 71.1847 54.216C71.5367 54.008 71.9487 53.904 72.4207 53.904C73.1567 53.904 73.7287 54.136 74.1367 54.6C74.5447 55.064 74.7487 55.744 74.7487 56.64V60H73.2127V56.784C73.2127 56.272 73.1087 55.88 72.9007 55.608C72.6927 55.336 72.3687 55.2 71.9287 55.2C71.4967 55.2 71.1407 55.352 70.8607 55.656C70.5887 55.96 70.4527 56.384 70.4527 56.928V60H68.9167ZM81.5369 60.144C81.0089 60.144 80.5449 60.06 80.1449 59.892C79.7449 59.716 79.4249 59.476 79.1849 59.172C78.9449 58.868 78.8009 58.516 78.7529 58.116H80.3009C80.3489 58.348 80.4769 58.548 80.6849 58.716C80.9009 58.876 81.1769 58.956 81.5129 58.956C81.8489 58.956 82.0929 58.888 82.2449 58.752C82.4049 58.616 82.4849 58.46 82.4849 58.284C82.4849 58.028 82.3729 57.856 82.1489 57.768C81.9249 57.672 81.6129 57.58 81.2129 57.492C80.9569 57.436 80.6969 57.368 80.4329 57.288C80.1689 57.208 79.9249 57.108 79.7009 56.988C79.4849 56.86 79.3089 56.7 79.1729 56.508C79.0369 56.308 78.9689 56.064 78.9689 55.776C78.9689 55.248 79.1769 54.804 79.5929 54.444C80.0169 54.084 80.6089 53.904 81.3689 53.904C82.0729 53.904 82.6329 54.068 83.0489 54.396C83.4729 54.724 83.7249 55.176 83.8049 55.752H82.3529C82.2649 55.312 81.9329 55.092 81.3569 55.092C81.0689 55.092 80.8449 55.148 80.6849 55.26C80.5329 55.372 80.4569 55.512 80.4569 55.68C80.4569 55.856 80.5729 55.996 80.8049 56.1C81.0369 56.204 81.3449 56.3 81.7289 56.388C82.1449 56.484 82.5249 56.592 82.8689 56.712C83.2209 56.824 83.5009 56.996 83.7089 57.228C83.9169 57.452 84.0209 57.776 84.0209 58.2C84.0289 58.568 83.9329 58.9 83.7329 59.196C83.5329 59.492 83.2449 59.724 82.8689 59.892C82.4929 60.06 82.0489 60.144 81.5369 60.144ZM88.2376 60.144C87.6616 60.144 87.1416 60.012 86.6776 59.748C86.2216 59.484 85.8576 59.12 85.5856 58.656C85.3216 58.184 85.1896 57.64 85.1896 57.024C85.1896 56.408 85.3256 55.868 85.5976 55.404C85.8696 54.932 86.2336 54.564 86.6896 54.3C87.1536 54.036 87.6736 53.904 88.2496 53.904C88.8176 53.904 89.3296 54.036 89.7856 54.3C90.2496 54.564 90.6136 54.932 90.8776 55.404C91.1496 55.868 91.2856 56.408 91.2856 57.024C91.2856 57.64 91.1496 58.184 90.8776 58.656C90.6136 59.12 90.2496 59.484 89.7856 59.748C89.3216 60.012 88.8056 60.144 88.2376 60.144ZM88.2376 58.812C88.6376 58.812 88.9856 58.664 89.2816 58.368C89.5776 58.064 89.7256 57.616 89.7256 57.024C89.7256 56.432 89.5776 55.988 89.2816 55.692C88.9856 55.388 88.6416 55.236 88.2496 55.236C87.8416 55.236 87.4896 55.388 87.1936 55.692C86.9056 55.988 86.7616 56.432 86.7616 57.024C86.7616 57.616 86.9056 58.064 87.1936 58.368C87.4896 58.664 87.8376 58.812 88.2376 58.812ZM92.6589 60V54.048H94.0149L94.1469 54.852C94.3389 54.564 94.5909 54.336 94.9029 54.168C95.2229 53.992 95.5909 53.904 96.0069 53.904C96.9269 53.904 97.5789 54.26 97.9629 54.972C98.1789 54.644 98.4669 54.384 98.8269 54.192C99.1949 54 99.5949 53.904 100.027 53.904C100.803 53.904 101.399 54.136 101.815 54.6C102.231 55.064 102.439 55.744 102.439 56.64V60H100.903V56.784C100.903 56.272 100.803 55.88 100.603 55.608C100.411 55.336 100.111 55.2 99.7029 55.2C99.2869 55.2 98.9509 55.352 98.6949 55.656C98.4469 55.96 98.3229 56.384 98.3229 56.928V60H96.7869V56.784C96.7869 56.272 96.6869 55.88 96.4869 55.608C96.2869 55.336 95.9789 55.2 95.5629 55.2C95.1549 55.2 94.8229 55.352 94.5669 55.656C94.3189 55.96 94.1949 56.384 94.1949 56.928V60H92.6589ZM106.789 60.144C106.189 60.144 105.657 60.016 105.193 59.76C104.729 59.504 104.365 59.144 104.101 58.68C103.837 58.216 103.705 57.68 103.705 57.072C103.705 56.456 103.833 55.908 104.089 55.428C104.353 54.948 104.713 54.576 105.169 54.312C105.633 54.04 106.177 53.904 106.801 53.904C107.385 53.904 107.901 54.032 108.349 54.288C108.797 54.544 109.145 54.896 109.393 55.344C109.649 55.784 109.777 56.276 109.777 56.82C109.777 56.908 109.773 57 109.765 57.096C109.765 57.192 109.761 57.292 109.753 57.396H105.229C105.261 57.86 105.421 58.224 105.709 58.488C106.005 58.752 106.361 58.884 106.777 58.884C107.089 58.884 107.349 58.816 107.557 58.68C107.773 58.536 107.933 58.352 108.037 58.128H109.597C109.485 58.504 109.297 58.848 109.033 59.16C108.777 59.464 108.457 59.704 108.073 59.88C107.697 60.056 107.269 60.144 106.789 60.144ZM106.801 55.152C106.425 55.152 106.093 55.26 105.805 55.476C105.517 55.684 105.333 56.004 105.253 56.436H108.217C108.193 56.044 108.049 55.732 107.785 55.5C107.521 55.268 107.193 55.152 106.801 55.152ZM113.616 60C112.992 60 112.492 59.848 112.116 59.544C111.74 59.24 111.552 58.7 111.552 57.924V55.332H110.532V54.048H111.552L111.732 52.452H113.088V54.048H114.696V55.332H113.088V57.936C113.088 58.224 113.148 58.424 113.268 58.536C113.396 58.64 113.612 58.692 113.916 58.692H114.66V60H113.616ZM116.014 60V51.36H117.55V54.96C117.75 54.632 118.018 54.376 118.354 54.192C118.698 54 119.09 53.904 119.53 53.904C120.266 53.904 120.834 54.136 121.234 54.6C121.642 55.064 121.846 55.744 121.846 56.64V60H120.322V56.784C120.322 56.272 120.218 55.88 120.01 55.608C119.81 55.336 119.49 55.2 119.05 55.2C118.618 55.2 118.258 55.352 117.97 55.656C117.69 55.96 117.55 56.384 117.55 56.928V60H116.014ZM124.143 53.124C123.863 53.124 123.631 53.04 123.447 52.872C123.271 52.704 123.183 52.492 123.183 52.236C123.183 51.98 123.271 51.772 123.447 51.612C123.631 51.444 123.863 51.36 124.143 51.36C124.423 51.36 124.651 51.444 124.827 51.612C125.011 51.772 125.103 51.98 125.103 52.236C125.103 52.492 125.011 52.704 124.827 52.872C124.651 53.04 124.423 53.124 124.143 53.124ZM123.375 60V54.048H124.911V60H123.375ZM126.514 60V54.048H127.87L127.99 55.056C128.174 54.704 128.438 54.424 128.782 54.216C129.134 54.008 129.546 53.904 130.018 53.904C130.754 53.904 131.326 54.136 131.734 54.6C132.142 55.064 132.346 55.744 132.346 56.64V60H130.81V56.784C130.81 56.272 130.706 55.88 130.498 55.608C130.29 55.336 129.966 55.2 129.526 55.2C129.094 55.2 128.738 55.352 128.458 55.656C128.186 55.96 128.05 56.384 128.05 56.928V60H126.514ZM136.335 58.224C136.047 58.224 135.779 58.192 135.531 58.128L135.087 58.572C135.223 58.644 135.407 58.704 135.639 58.752C135.871 58.8 136.247 58.848 136.767 58.896C137.559 58.968 138.135 59.156 138.495 59.46C138.855 59.764 139.035 60.184 139.035 60.72C139.035 61.072 138.939 61.404 138.747 61.716C138.555 62.036 138.259 62.292 137.859 62.484C137.459 62.684 136.947 62.784 136.323 62.784C135.475 62.784 134.791 62.624 134.271 62.304C133.751 61.992 133.491 61.52 133.491 60.888C133.491 60.352 133.751 59.888 134.271 59.496C134.111 59.424 133.971 59.348 133.851 59.268C133.739 59.188 133.639 59.104 133.551 59.016V58.74L134.595 57.636C134.131 57.228 133.899 56.704 133.899 56.064C133.899 55.664 133.995 55.3 134.187 54.972C134.387 54.644 134.667 54.384 135.027 54.192C135.387 54 135.823 53.904 136.335 53.904C136.671 53.904 136.983 53.952 137.271 54.048H139.527V54.984L138.507 55.056C138.667 55.36 138.747 55.696 138.747 56.064C138.747 56.464 138.651 56.828 138.459 57.156C138.267 57.484 137.987 57.744 137.619 57.936C137.259 58.128 136.831 58.224 136.335 58.224ZM136.335 57.048C136.647 57.048 136.903 56.964 137.103 56.796C137.311 56.628 137.415 56.388 137.415 56.076C137.415 55.764 137.311 55.524 137.103 55.356C136.903 55.188 136.647 55.104 136.335 55.104C136.007 55.104 135.743 55.188 135.543 55.356C135.343 55.524 135.243 55.764 135.243 56.076C135.243 56.388 135.343 56.628 135.543 56.796C135.743 56.964 136.007 57.048 136.335 57.048ZM134.895 60.732C134.895 61.028 135.031 61.248 135.303 61.392C135.583 61.544 135.923 61.62 136.323 61.62C136.707 61.62 137.019 61.54 137.259 61.38C137.499 61.228 137.619 61.02 137.619 60.756C137.619 60.54 137.539 60.36 137.379 60.216C137.227 60.072 136.919 59.984 136.455 59.952C136.127 59.928 135.823 59.892 135.543 59.844C135.311 59.972 135.143 60.112 135.039 60.264C134.943 60.416 134.895 60.572 134.895 60.732ZM143.507 60V54.048H144.863L144.983 55.056C145.167 54.704 145.431 54.424 145.775 54.216C146.127 54.008 146.539 53.904 147.011 53.904C147.747 53.904 148.319 54.136 148.727 54.6C149.135 55.064 149.339 55.744 149.339 56.64V60H147.803V56.784C147.803 56.272 147.699 55.88 147.491 55.608C147.283 55.336 146.959 55.2 146.519 55.2C146.087 55.2 145.731 55.352 145.451 55.656C145.179 55.96 145.043 56.384 145.043 56.928V60H143.507ZM153.699 60.144C153.099 60.144 152.567 60.016 152.103 59.76C151.639 59.504 151.275 59.144 151.011 58.68C150.747 58.216 150.615 57.68 150.615 57.072C150.615 56.456 150.743 55.908 150.999 55.428C151.263 54.948 151.623 54.576 152.079 54.312C152.543 54.04 153.087 53.904 153.711 53.904C154.295 53.904 154.811 54.032 155.259 54.288C155.707 54.544 156.055 54.896 156.303 55.344C156.559 55.784 156.687 56.276 156.687 56.82C156.687 56.908 156.683 57 156.675 57.096C156.675 57.192 156.671 57.292 156.663 57.396H152.139C152.171 57.86 152.331 58.224 152.619 58.488C152.915 58.752 153.271 58.884 153.687 58.884C153.999 58.884 154.259 58.816 154.467 58.68C154.683 58.536 154.843 58.352 154.947 58.128H156.507C156.395 58.504 156.207 58.848 155.943 59.16C155.687 59.464 155.367 59.704 154.983 59.88C154.607 60.056 154.179 60.144 153.699 60.144ZM153.711 55.152C153.335 55.152 153.003 55.26 152.715 55.476C152.427 55.684 152.243 56.004 152.163 56.436H155.127C155.103 56.044 154.959 55.732 154.695 55.5C154.431 55.268 154.103 55.152 153.711 55.152ZM158.909 60L157.169 54.048H158.693L159.725 58.332L160.925 54.048H162.629L163.829 58.332L164.873 54.048H166.397L164.645 60H163.049L161.777 55.548L160.505 60H158.909Z" fill="#777777"/>
<rect x="16" y="80" width="204" height="157" rx="8" fill="white"/>
<path d="M35.96 106.12C35.26 106.12 34.6467 105.967 34.12 105.66C33.6 105.353 33.19 104.93 32.89 104.39C32.5967 103.843 32.45 103.213 32.45 102.5C32.45 101.787 32.5967 101.16 32.89 100.62C33.19 100.073 33.6 99.6467 34.12 99.34C34.6467 99.0333 35.26 98.88 35.96 98.88C36.6533 98.88 37.2633 99.0333 37.79 99.34C38.3167 99.6467 38.7267 100.073 39.02 100.62C39.3133 101.16 39.46 101.787 39.46 102.5C39.46 103.213 39.3133 103.843 39.02 104.39C38.7267 104.93 38.3167 105.353 37.79 105.66C37.2633 105.967 36.6533 106.12 35.96 106.12ZM35.96 104.97C36.6267 104.97 37.1567 104.75 37.55 104.31C37.95 103.87 38.15 103.267 38.15 102.5C38.15 101.733 37.95 101.13 37.55 100.69C37.1567 100.25 36.6267 100.03 35.96 100.03C35.2933 100.03 34.76 100.25 34.36 100.69C33.96 101.13 33.76 101.733 33.76 102.5C33.76 103.267 33.96 103.87 34.36 104.31C34.76 104.75 35.2933 104.97 35.96 104.97ZM40.5602 108.2V101.04H41.7002L41.8402 101.75C42.0002 101.53 42.2102 101.337 42.4702 101.17C42.7368 101.003 43.0802 100.92 43.5002 100.92C43.9668 100.92 44.3835 101.033 44.7502 101.26C45.1168 101.487 45.4068 101.797 45.6202 102.19C45.8335 102.583 45.9402 103.03 45.9402 103.53C45.9402 104.03 45.8335 104.477 45.6202 104.87C45.4068 105.257 45.1168 105.563 44.7502 105.79C44.3835 106.01 43.9668 106.12 43.5002 106.12C43.1268 106.12 42.8002 106.05 42.5202 105.91C42.2402 105.77 42.0135 105.573 41.8402 105.32V108.2H40.5602ZM43.2302 105C43.6368 105 43.9735 104.863 44.2402 104.59C44.5068 104.317 44.6402 103.963 44.6402 103.53C44.6402 103.097 44.5068 102.74 44.2402 102.46C43.9735 102.18 43.6368 102.04 43.2302 102.04C42.8168 102.04 42.4768 102.18 42.2102 102.46C41.9502 102.733 41.8202 103.087 41.8202 103.52C41.8202 103.953 41.9502 104.31 42.2102 104.59C42.4768 104.863 42.8168 105 43.2302 105ZM49.4936 106.12C48.9936 106.12 48.5503 106.013 48.1636 105.8C47.7769 105.587 47.4736 105.287 47.2536 104.9C47.0336 104.513 46.9236 104.067 46.9236 103.56C46.9236 103.047 47.0303 102.59 47.2436 102.19C47.4636 101.79 47.7636 101.48 48.1436 101.26C48.5303 101.033 48.9836 100.92 49.5036 100.92C49.9903 100.92 50.4203 101.027 50.7936 101.24C51.1669 101.453 51.4569 101.747 51.6636 102.12C51.8769 102.487 51.9836 102.897 51.9836 103.35C51.9836 103.423 51.9803 103.5 51.9736 103.58C51.9736 103.66 51.9703 103.743 51.9636 103.83H48.1936C48.2203 104.217 48.3536 104.52 48.5936 104.74C48.8403 104.96 49.1369 105.07 49.4836 105.07C49.7436 105.07 49.9603 105.013 50.1336 104.9C50.3136 104.78 50.4469 104.627 50.5336 104.44H51.8336C51.7403 104.753 51.5836 105.04 51.3636 105.3C51.1503 105.553 50.8836 105.753 50.5636 105.9C50.2503 106.047 49.8936 106.12 49.4936 106.12ZM49.5036 101.96C49.1903 101.96 48.9136 102.05 48.6736 102.23C48.4336 102.403 48.2803 102.67 48.2136 103.03H50.6836C50.6636 102.703 50.5436 102.443 50.3236 102.25C50.1036 102.057 49.8303 101.96 49.5036 101.96ZM53.0602 106V101.04H54.1902L54.2902 101.88C54.4435 101.587 54.6635 101.353 54.9502 101.18C55.2435 101.007 55.5868 100.92 55.9802 100.92C56.5935 100.92 57.0702 101.113 57.4102 101.5C57.7502 101.887 57.9202 102.453 57.9202 103.2V106H56.6402V103.32C56.6402 102.893 56.5535 102.567 56.3802 102.34C56.2068 102.113 55.9368 102 55.5702 102C55.2102 102 54.9135 102.127 54.6802 102.38C54.4535 102.633 54.3402 102.987 54.3402 103.44V106H53.0602ZM61.107 106L63.667 99H65.107L67.667 106H66.307L65.747 104.38H63.017L62.447 106H61.107ZM63.367 103.38H65.397L64.377 100.47L63.367 103.38ZM68.5687 106V99H69.8487V106H68.5687ZM73.1382 106L75.6982 99H77.1382L79.6982 106H78.3382L77.7782 104.38H75.0482L74.4782 106H73.1382ZM75.3982 103.38H77.4282L76.4082 100.47L75.3982 103.38ZM80.5999 106V99H83.1899C83.7499 99 84.2133 99.0933 84.5799 99.28C84.9466 99.4667 85.2199 99.7233 85.3999 100.05C85.5799 100.377 85.6699 100.743 85.6699 101.15C85.6699 101.537 85.5833 101.893 85.4099 102.22C85.2366 102.54 84.9666 102.8 84.5999 103C84.2333 103.193 83.7633 103.29 83.1899 103.29H81.8799V106H80.5999ZM81.8799 102.25H83.1099C83.5566 102.25 83.8766 102.153 84.0699 101.96C84.2699 101.76 84.3699 101.49 84.3699 101.15C84.3699 100.803 84.2699 100.533 84.0699 100.34C83.8766 100.14 83.5566 100.04 83.1099 100.04H81.8799V102.25ZM86.6741 106V99H87.9541V106H86.6741ZM91.6937 106V99H92.9737V101.83L95.5637 99H97.1437L94.5637 101.78L97.2137 106H95.6437L93.6437 102.76L92.9737 103.49V106H91.6937ZM100.06 106.12C99.56 106.12 99.1167 106.013 98.73 105.8C98.3433 105.587 98.04 105.287 97.82 104.9C97.6 104.513 97.49 104.067 97.49 103.56C97.49 103.047 97.5967 102.59 97.81 102.19C98.03 101.79 98.33 101.48 98.71 101.26C99.0967 101.033 99.55 100.92 100.07 100.92C100.557 100.92 100.987 101.027 101.36 101.24C101.733 101.453 102.023 101.747 102.23 102.12C102.443 102.487 102.55 102.897 102.55 103.35C102.55 103.423 102.547 103.5 102.54 103.58C102.54 103.66 102.537 103.743 102.53 103.83H98.76C98.7867 104.217 98.92 104.52 99.16 104.74C99.4067 104.96 99.7033 105.07 100.05 105.07C100.31 105.07 100.527 105.013 100.7 104.9C100.88 104.78 101.013 104.627 101.1 104.44H102.4C102.307 104.753 102.15 105.04 101.93 105.3C101.717 105.553 101.45 105.753 101.13 105.9C100.817 106.047 100.46 106.12 100.06 106.12ZM100.07 101.96C99.7567 101.96 99.48 102.05 99.24 102.23C99 102.403 98.8467 102.67 98.78 103.03H101.25C101.23 102.703 101.11 102.443 100.89 102.25C100.67 102.057 100.397 101.96 100.07 101.96ZM104.002 108.2L105.152 105.67H104.852L102.922 101.04H104.312L105.702 104.53L107.152 101.04H108.512L105.362 108.2H104.002Z" fill="#777777"/>
<rect x="32" y="113" width="172" height="26" rx="4" fill="#F2F2F2"/>
<path d="M32.68 165V158H34.2L36.43 162.44L38.63 158H40.15V165H38.87V160.17L36.92 164H35.91L33.96 160.17V165H32.68ZM43.8581 165.12C43.3781 165.12 42.9448 165.01 42.5581 164.79C42.1781 164.57 41.8748 164.267 41.6481 163.88C41.4281 163.487 41.3181 163.033 41.3181 162.52C41.3181 162.007 41.4315 161.557 41.6581 161.17C41.8848 160.777 42.1881 160.47 42.5681 160.25C42.9548 160.03 43.3881 159.92 43.8681 159.92C44.3415 159.92 44.7681 160.03 45.1481 160.25C45.5348 160.47 45.8381 160.777 46.0581 161.17C46.2848 161.557 46.3981 162.007 46.3981 162.52C46.3981 163.033 46.2848 163.487 46.0581 163.88C45.8381 164.267 45.5348 164.57 45.1481 164.79C44.7615 165.01 44.3315 165.12 43.8581 165.12ZM43.8581 164.01C44.1915 164.01 44.4815 163.887 44.7281 163.64C44.9748 163.387 45.0981 163.013 45.0981 162.52C45.0981 162.027 44.9748 161.657 44.7281 161.41C44.4815 161.157 44.1948 161.03 43.8681 161.03C43.5281 161.03 43.2348 161.157 42.9881 161.41C42.7481 161.657 42.6281 162.027 42.6281 162.52C42.6281 163.013 42.7481 163.387 42.9881 163.64C43.2348 163.887 43.5248 164.01 43.8581 164.01ZM49.8226 165.12C49.3559 165.12 48.9392 165.007 48.5726 164.78C48.2059 164.553 47.9159 164.243 47.7026 163.85C47.4892 163.457 47.3826 163.01 47.3826 162.51C47.3826 162.01 47.4892 161.567 47.7026 161.18C47.9159 160.787 48.2059 160.48 48.5726 160.26C48.9392 160.033 49.3559 159.92 49.8226 159.92C50.1959 159.92 50.5226 159.99 50.8026 160.13C51.0826 160.27 51.3092 160.467 51.4826 160.72V157.8H52.7626V165H51.6226L51.4826 164.29C51.3226 164.51 51.1092 164.703 50.8426 164.87C50.5826 165.037 50.2426 165.12 49.8226 165.12ZM50.0926 164C50.5059 164 50.8426 163.863 51.1026 163.59C51.3692 163.31 51.5026 162.953 51.5026 162.52C51.5026 162.087 51.3692 161.733 51.1026 161.46C50.8426 161.18 50.5059 161.04 50.0926 161.04C49.6859 161.04 49.3492 161.177 49.0826 161.45C48.8159 161.723 48.6826 162.077 48.6826 162.51C48.6826 162.943 48.8159 163.3 49.0826 163.58C49.3492 163.86 49.6859 164 50.0926 164ZM55.776 165.12C55.3493 165.12 54.9993 165.053 54.726 164.92C54.4527 164.78 54.2493 164.597 54.116 164.37C53.9827 164.143 53.916 163.893 53.916 163.62C53.916 163.16 54.096 162.787 54.456 162.5C54.816 162.213 55.356 162.07 56.076 162.07H57.336V161.95C57.336 161.61 57.2393 161.36 57.046 161.2C56.8527 161.04 56.6127 160.96 56.326 160.96C56.066 160.96 55.8393 161.023 55.646 161.15C55.4527 161.27 55.3327 161.45 55.286 161.69H54.036C54.0693 161.33 54.1893 161.017 54.396 160.75C54.6093 160.483 54.8827 160.28 55.216 160.14C55.5493 159.993 55.9227 159.92 56.336 159.92C57.0427 159.92 57.5993 160.097 58.006 160.45C58.4127 160.803 58.616 161.303 58.616 161.95V165H57.526L57.406 164.2C57.2593 164.467 57.0527 164.687 56.786 164.86C56.526 165.033 56.1893 165.12 55.776 165.12ZM56.066 164.12C56.4327 164.12 56.716 164 56.916 163.76C57.1227 163.52 57.2527 163.223 57.306 162.87H56.216C55.876 162.87 55.6327 162.933 55.486 163.06C55.3393 163.18 55.266 163.33 55.266 163.51C55.266 163.703 55.3393 163.853 55.486 163.96C55.6327 164.067 55.826 164.12 56.066 164.12ZM59.8375 165V157.8H61.1175V165H59.8375ZM64.8382 165V158H66.1182L69.4082 162.93V158H70.6882V165H69.4082L66.1182 160.08V165H64.8382ZM73.7252 165.12C73.2986 165.12 72.9486 165.053 72.6752 164.92C72.4019 164.78 72.1986 164.597 72.0652 164.37C71.9319 164.143 71.8652 163.893 71.8652 163.62C71.8652 163.16 72.0452 162.787 72.4052 162.5C72.7652 162.213 73.3052 162.07 74.0252 162.07H75.2852V161.95C75.2852 161.61 75.1886 161.36 74.9952 161.2C74.8019 161.04 74.5619 160.96 74.2752 160.96C74.0152 160.96 73.7886 161.023 73.5952 161.15C73.4019 161.27 73.2819 161.45 73.2352 161.69H71.9852C72.0186 161.33 72.1386 161.017 72.3452 160.75C72.5586 160.483 72.8319 160.28 73.1652 160.14C73.4986 159.993 73.8719 159.92 74.2852 159.92C74.9919 159.92 75.5486 160.097 75.9552 160.45C76.3619 160.803 76.5652 161.303 76.5652 161.95V165H75.4752L75.3552 164.2C75.2086 164.467 75.0019 164.687 74.7352 164.86C74.4752 165.033 74.1386 165.12 73.7252 165.12ZM74.0152 164.12C74.3819 164.12 74.6652 164 74.8652 163.76C75.0719 163.52 75.2019 163.223 75.2552 162.87H74.1652C73.8252 162.87 73.5819 162.933 73.4352 163.06C73.2886 163.18 73.2152 163.33 73.2152 163.51C73.2152 163.703 73.2886 163.853 73.4352 163.96C73.5819 164.067 73.7752 164.12 74.0152 164.12ZM77.7867 165V160.04H78.9167L79.0267 160.71C79.1867 160.47 79.3967 160.28 79.6567 160.14C79.9234 159.993 80.2301 159.92 80.5767 159.92C81.3434 159.92 81.8867 160.217 82.2067 160.81C82.3867 160.537 82.6267 160.32 82.9267 160.16C83.2334 160 83.5667 159.92 83.9267 159.92C84.5734 159.92 85.0701 160.113 85.4167 160.5C85.7634 160.887 85.9367 161.453 85.9367 162.2V165H84.6567V162.32C84.6567 161.893 84.5734 161.567 84.4067 161.34C84.2467 161.113 83.9967 161 83.6567 161C83.3101 161 83.0301 161.127 82.8167 161.38C82.6101 161.633 82.5067 161.987 82.5067 162.44V165H81.2267V162.32C81.2267 161.893 81.1434 161.567 80.9767 161.34C80.8101 161.113 80.5534 161 80.2067 161C79.8667 161 79.5901 161.127 79.3767 161.38C79.1701 161.633 79.0667 161.987 79.0667 162.44V165H77.7867ZM89.562 165.12C89.062 165.12 88.6186 165.013 88.232 164.8C87.8453 164.587 87.542 164.287 87.322 163.9C87.102 163.513 86.992 163.067 86.992 162.56C86.992 162.047 87.0986 161.59 87.312 161.19C87.532 160.79 87.832 160.48 88.212 160.26C88.5986 160.033 89.052 159.92 89.572 159.92C90.0586 159.92 90.4886 160.027 90.862 160.24C91.2353 160.453 91.5253 160.747 91.732 161.12C91.9453 161.487 92.052 161.897 92.052 162.35C92.052 162.423 92.0486 162.5 92.042 162.58C92.042 162.66 92.0386 162.743 92.032 162.83H88.262C88.2886 163.217 88.422 163.52 88.662 163.74C88.9086 163.96 89.2053 164.07 89.552 164.07C89.812 164.07 90.0286 164.013 90.202 163.9C90.382 163.78 90.5153 163.627 90.602 163.44H91.902C91.8086 163.753 91.652 164.04 91.432 164.3C91.2186 164.553 90.952 164.753 90.632 164.9C90.3186 165.047 89.962 165.12 89.562 165.12ZM89.572 160.96C89.2586 160.96 88.982 161.05 88.742 161.23C88.502 161.403 88.3486 161.67 88.282 162.03H90.752C90.732 161.703 90.612 161.443 90.392 161.25C90.172 161.057 89.8986 160.96 89.572 160.96Z" fill="#777777"/>
<rect x="32" y="172" width="172" height="26" rx="4" fill="#F2F2F2"/>
</svg>
