<svg xmlns="http://www.w3.org/2000/svg" width="99" height="15" fill="currentColor" viewBox="0 0 99 15">
  <path d="M1.995 12.12c-.608 0-1.04-.32-1.296-.96-.24-.64-.36-1.664-.36-3.072 0-2.08.296-4.056.888-5.928.144-.464.376-.8.696-1.008.336-.224.8-.336 1.392-.336.32 0 .544.04.672.12.128.08.192.232.192.456 0 .256-.12.832-.36 1.728-.16.64-.288 1.2-.384 1.68a16.07 16.07 0 0 0-.24 1.752c.432-1.248.944-2.304 1.536-3.168.608-.864 1.224-1.504 1.848-1.92.64-.432 1.24-.648 1.8-.648s.952.128 1.176.384c.24.256.36.648.36 1.176 0 .512-.152 1.44-.456 2.784a27.101 27.101 0 0 0-.264 1.296c.528-1.344 1.112-2.44 1.752-3.288.656-.848 1.296-1.448 1.92-1.8.624-.368 1.2-.552 1.728-.552.512 0 .896.136 1.152.408.272.256.408.64.408 1.152 0 .416-.088 1.2-.264 2.352-.16.976-.288 1.904-.384 2.784a26.486 26.486 0 0 0-.144 2.904c0 .608-.128 1.048-.384 1.32-.24.256-.64.384-1.2.384-.528 0-.912-.136-1.152-.408-.24-.272-.36-.68-.36-1.224 0-.64.112-1.696.336-3.168.192-1.28.288-2.096.288-2.448 0-.256-.088-.384-.264-.384-.208 0-.504.272-.888.816-.384.528-.768 1.232-1.152 2.112A17.24 17.24 0 0 0 9.65 10.2c-.176.768-.384 1.28-.624 1.536-.224.256-.592.384-1.104.384-.528 0-.928-.248-1.2-.744-.256-.512-.384-1.128-.384-1.848 0-.608.08-1.488.24-2.64.128-1.024.192-1.696.192-2.016 0-.256-.088-.384-.264-.384-.24 0-.544.288-.912.864-.368.576-.728 1.312-1.08 2.208a22.568 22.568 0 0 0-.816 2.64c-.176.752-.384 1.264-.624 1.536-.224.256-.584.384-1.08.384Zm16.472-8.88h1.932V4.8h-1.932V3.24Zm-.936 7.308h1.152V7.272H17.53V5.82h2.844v4.728h1.032V12H17.53v-1.452Zm7.035 1.632c-.392 0-.772-.04-1.14-.12a3.665 3.665 0 0 1-.924-.324l.156-1.44c.272.168.572.304.9.408.328.104.636.156.924.156.272 0 .5-.048.684-.144.184-.104.276-.252.276-.444a.386.386 0 0 0-.192-.348c-.128-.088-.372-.196-.732-.324l-.324-.12a7.721 7.721 0 0 1-.84-.36c-.216-.12-.412-.3-.588-.54-.176-.24-.264-.556-.264-.948 0-.624.232-1.108.696-1.452.472-.352 1.084-.528 1.836-.528.592 0 1.216.116 1.872.348l-.228 1.428a3.22 3.22 0 0 0-.792-.324 2.796 2.796 0 0 0-.816-.132c-.264 0-.476.044-.636.132a.42.42 0 0 0-.228.384c0 .16.064.28.192.36.128.08.344.172.648.276.24.088.38.14.42.156.336.136.616.268.84.396.224.128.42.32.588.576.168.248.252.568.252.96 0 .656-.236 1.148-.708 1.476-.472.328-1.096.492-1.872.492Zm5.817 0c-.392 0-.773-.04-1.14-.12a3.665 3.665 0 0 1-.924-.324l.155-1.44c.273.168.573.304.9.408.329.104.637.156.925.156.271 0 .5-.048.684-.144.183-.104.276-.252.276-.444a.386.386 0 0 0-.192-.348c-.128-.088-.372-.196-.733-.324l-.323-.12a7.721 7.721 0 0 1-.84-.36c-.216-.12-.412-.3-.588-.54-.176-.24-.264-.556-.264-.948 0-.624.232-1.108.696-1.452.471-.352 1.084-.528 1.835-.528.592 0 1.216.116 1.872.348l-.227 1.428a3.22 3.22 0 0 0-.792-.324 2.796 2.796 0 0 0-.816-.132c-.265 0-.477.044-.637.132a.42.42 0 0 0-.227.384c0 .16.064.28.192.36.128.08.343.172.648.276.24.088.38.14.42.156.335.136.615.268.84.396.224.128.42.32.588.576.168.248.252.568.252.96 0 .656-.236 1.148-.709 1.476-.471.328-1.095.492-1.871.492Zm4.748-8.94h1.932V4.8H35.13V3.24Zm-.936 7.308h1.152V7.272h-1.152V5.82h2.844v4.728h1.032V12h-3.876v-1.452Zm5.247-4.728h1.656v1.068c.256-.424.552-.736.888-.936.336-.2.728-.3 1.176-.3.664 0 1.184.2 1.56.6.376.392.564.94.564 1.644V12h-1.692V8.16c0-.32-.08-.568-.24-.744-.16-.184-.376-.276-.648-.276-.32 0-.624.12-.912.36-.288.24-.508.544-.66.912V12h-1.692V5.82Zm9.602 8.904a7.959 7.959 0 0 1-2.088-.276l.324-1.488c.768.224 1.408.336 1.92.336.408 0 .72-.064.936-.192.224-.128.38-.328.468-.6.096-.272.152-.644.168-1.116h-.036a2.311 2.311 0 0 1-.78.588 2.3 2.3 0 0 1-.972.204c-.704 0-1.256-.264-1.656-.792-.392-.536-.588-1.276-.588-2.22 0-1.144.292-2.016.876-2.616.592-.6 1.436-.9 2.532-.9.632 0 1.384.096 2.256.288.016 1.648.024 2.888.024 3.72 0 .744-.004 1.304-.012 1.68-.016 1.136-.304 1.984-.864 2.544-.552.56-1.388.84-2.508.84Zm.384-4.02c.248 0 .484-.092.708-.276.232-.184.436-.444.612-.78l-.012-2.412a2.914 2.914 0 0 0-.768-.108c-.504 0-.888.164-1.152.492-.256.328-.384.804-.384 1.428 0 .52.084.928.252 1.224.176.288.424.432.744.432Zm9.612 1.452c-.464 0-.908-.052-1.332-.156a4.166 4.166 0 0 1-1.08-.42l.144-1.608c.36.224.736.4 1.128.528.4.12.768.18 1.104.18.384 0 .696-.08.936-.24.24-.16.36-.372.36-.636 0-.216-.08-.38-.24-.492-.16-.12-.412-.248-.756-.384l-.288-.12a2.402 2.402 0 0 0-.132-.048 1.762 1.762 0 0 0-.168-.072 8.72 8.72 0 0 1-1.08-.516 2.342 2.342 0 0 1-.708-.696c-.192-.296-.288-.68-.288-1.152 0-.768.26-1.372.78-1.812.52-.44 1.244-.66 2.172-.66.704 0 1.424.144 2.16.432l-.264 1.584a4.251 4.251 0 0 0-.96-.396 3.495 3.495 0 0 0-.96-.144c-.376 0-.668.076-.876.228a.679.679 0 0 0-.312.588c0 .216.072.384.216.504.144.12.376.248.696.384l.492.192a9.08 9.08 0 0 1 1.152.516c.304.168.564.412.78.732.216.312.324.72.324 1.224 0 .776-.264 1.38-.792 1.812-.528.432-1.264.648-2.208.648Zm6.662.024c-.576 0-1.024-.144-1.344-.432-.312-.296-.468-.712-.468-1.248V7.272h-.96V5.82h.96V4.5a20.994 20.994 0 0 1 1.68-.216V5.82h1.56v1.452h-1.56v2.916c0 .168.048.296.144.384.104.088.248.132.432.132.224 0 .48-.052.768-.156l.372 1.272c-.512.24-1.04.36-1.584.36Zm5.085-.012c-.656 0-1.172-.2-1.548-.6-.376-.4-.564-.948-.564-1.644V5.82h1.692v3.828c0 .328.08.584.24.768.16.176.376.264.648.264s.532-.088.78-.264c.256-.176.468-.412.636-.708V5.82h1.692V12h-1.692v-.816a2.67 2.67 0 0 1-.804.732c-.296.168-.656.252-1.08.252Zm7.314.012c-.696 0-1.244-.264-1.644-.792-.392-.536-.588-1.28-.588-2.232 0-1.128.292-1.992.876-2.592.592-.608 1.432-.912 2.52-.912.136 0 .34.008.612.024V3.24h1.668V12H79.9l.036-.804h-.048a2.16 2.16 0 0 1-.768.732 2.03 2.03 0 0 1-1.02.252Zm.384-1.476c.256 0 .504-.108.744-.324.24-.224.456-.54.648-.948V7.236a3.048 3.048 0 0 0-.78-.108c-.504 0-.888.164-1.152.492-.256.328-.384.808-.384 1.44 0 .512.08.916.24 1.212.168.288.396.432.684.432Zm5.58-7.464h1.931V4.8h-1.931V3.24Zm-.936 7.308h1.151V7.272h-1.15V5.82h2.843v4.728h1.032V12h-3.876v-1.452Zm7.986 1.632c-.624 0-1.176-.136-1.656-.408a2.857 2.857 0 0 1-1.105-1.14c-.263-.496-.395-1.068-.395-1.716 0-.648.127-1.216.383-1.704a2.84 2.84 0 0 1 1.105-1.152c.48-.272 1.031-.408 1.656-.408.624 0 1.172.136 1.644.408.48.264.847.64 1.103 1.128.265.488.397 1.052.397 1.692 0 .648-.132 1.224-.397 1.728a2.815 2.815 0 0 1-1.103 1.164c-.472.272-1.016.408-1.632.408Zm-.012-1.464c.431 0 .776-.164 1.032-.492.263-.336.395-.776.395-1.32s-.132-.976-.395-1.296c-.257-.328-.6-.492-1.032-.492-.432 0-.78.164-1.044.492-.257.32-.385.752-.385 1.296s.128.984.384 1.32c.264.328.612.492 1.044.492Zm5.743 1.692c-.336 0-.628-.124-.876-.372-.24-.24-.36-.528-.36-.864 0-.344.12-.636.36-.876.248-.248.54-.372.876-.372.344 0 .636.124.876.372.24.24.36.532.36.876 0 .336-.12.624-.36.864-.24.248-.532.372-.876.372Z"/>
</svg>
