<svg width="85" height="24" viewBox="0 0 85 24" fill="none" xmlns="http://www.w3.org/2000/svg">
<path d="M20 12.3556C20 10.0674 18.9881 8.01227 17.3899 6.61013C15.9877 5.01191 13.9326 4 11.6444 4C7.42933 4 4 7.42933 4 11.6444C4 13.9321 5.01156 15.9868 6.60924 17.389C8.01138 18.9877 10.0668 20 12.3556 20C12.3705 20 12.3851 19.9989 12.4 19.9989C12.4149 19.9989 12.4295 20 12.4444 20C16.6172 20 20 16.6172 20 12.4444C20 12.4295 19.9989 12.4149 19.9989 12.4C19.9989 12.3851 20 12.3705 20 12.3556ZM6.99164 16.1548C6.23698 15.0921 5.78809 13.7977 5.77884 12.4C5.80284 8.7536 8.75342 5.80284 12.4 5.77884C13.7977 5.78809 15.0923 6.23698 16.1548 6.99164C17.3732 8.17298 18.1333 9.82364 18.1333 11.6444C18.1333 15.2224 15.2224 18.1333 11.6444 18.1333C9.82364 18.1333 8.17298 17.3732 6.99164 16.1548ZM4.17778 11.6444C4.17778 7.52729 7.52729 4.17778 11.6444 4.17778C13.397 4.17778 15.0091 4.78613 16.2844 5.80089C15.1355 5.10969 13.7913 4.71111 12.3556 4.71111C8.14044 4.71111 4.71111 8.14044 4.71111 12.3556C4.71111 13.7909 5.10951 15.1348 5.80036 16.2836C4.78596 15.0085 4.17778 13.3966 4.17778 11.6444ZM12.3556 18.9333C10.5636 18.9333 8.93742 18.2124 7.75022 17.0462C8.84782 17.8407 10.1934 18.3111 11.6444 18.3111C15.3205 18.3111 18.3111 15.3205 18.3111 11.6444C18.3111 10.1934 17.8407 8.84782 17.0462 7.75022C18.2124 8.93742 18.9333 10.5636 18.9333 12.3556C18.9333 15.9826 15.9826 18.9333 12.3556 18.9333Z" fill="#7B61FF"/>
<path d="M24 18.9561C24.0142 18.5868 24.11 18.182 24.2876 17.7417C24.4651 17.3014 24.6745 16.9534 24.9159 16.6977C26.0519 17.2943 27.0389 17.5925 27.8767 17.5925C28.2743 17.5925 28.5796 17.5251 28.7926 17.3901C29.0056 17.2552 29.1121 17.0741 29.1121 16.8469C29.1121 16.4208 28.7855 16.1012 28.1323 15.8882L26.9608 15.4407C25.1857 14.7874 24.2982 13.7222 24.2982 12.245C24.2982 11.1656 24.671 10.3098 25.4165 9.67776C26.162 9.04572 27.1667 8.72969 28.4305 8.72969C29.0553 8.72969 29.744 8.81846 30.4966 8.99601C31.2493 9.17355 31.867 9.38305 32.3498 9.6245C32.3782 10.0222 32.3001 10.4589 32.1155 10.9348C31.9309 11.4106 31.7037 11.7479 31.4338 11.9467C30.241 11.407 29.247 11.1372 28.4518 11.1372C28.1678 11.1372 27.9512 11.2011 27.8021 11.3289C27.653 11.4567 27.5785 11.6201 27.5785 11.8189C27.5785 12.1598 27.8483 12.4297 28.3879 12.6285L29.7085 13.0972C31.5972 13.7648 32.5415 14.9081 32.5415 16.5273C32.5415 17.5925 32.151 18.4376 31.37 19.0626C30.5889 19.6875 29.4742 20 28.0258 20C26.5774 20 25.2354 19.652 24 18.9561ZM40.5078 9.02796C40.593 9.42566 40.6357 9.82335 40.6357 10.221C40.6357 10.6187 40.593 11.0093 40.5078 11.3928L37.9731 11.3502V16.2503C37.9731 16.9179 38.2855 17.2517 38.9103 17.2517H40.1031C40.2877 17.763 40.38 18.2317 40.38 18.6578C40.38 19.0839 40.3517 19.3893 40.2948 19.5739C39.244 19.7159 38.2784 19.787 37.398 19.787C35.6087 19.787 34.7141 18.7998 34.7141 16.8256V11.3715L33.0527 11.3928C32.9533 11.0377 32.9036 10.6507 32.9036 10.2317C32.9036 9.81269 32.9533 9.41145 33.0527 9.02796L34.7141 9.07057V7.83489C34.7141 7.11052 34.8526 6.59565 35.1295 6.29028C35.4064 5.98491 35.8715 5.83222 36.5247 5.83222H37.824L37.9731 5.98136V9.07057L40.5078 9.02796ZM42.2119 16.0799V11.7124C42.2119 10.7892 42.0415 10.079 41.7007 9.58189C42.2261 9.11318 42.8651 8.87883 43.6177 8.87883C44.3703 8.87883 44.8815 9.04927 45.1513 9.39015C45.4211 9.73103 45.5561 10.2494 45.5561 10.9454V15.4621C45.5561 15.9592 45.6129 16.3214 45.7265 16.5486C45.8401 16.7759 46.1383 16.8895 46.6211 16.8895C47.0897 16.8895 47.5654 16.648 48.0482 16.1651V9.04927C48.5168 8.96405 49.0635 8.92144 49.6883 8.92144C50.3132 8.92144 50.8741 8.96405 51.3711 9.04927V16.6338C51.3711 17.4008 51.5699 17.9192 51.9675 18.1891C51.8965 18.4731 51.7616 18.7821 51.5628 19.1158C51.364 19.4496 51.1581 19.6946 50.9451 19.8509C49.7806 19.8083 48.9428 19.3111 48.4316 18.3595C47.3098 19.368 46.2519 19.8722 45.2578 19.8722C44.2638 19.8722 43.5077 19.5277 42.9893 18.8389C42.471 18.15 42.2119 17.2304 42.2119 16.0799ZM57.6334 8.83622C58.315 8.83622 58.9753 8.99246 59.6144 9.30493V4.14913L59.7422 4H61.0415C61.7231 4 62.1953 4.14913 62.458 4.4474C62.7207 4.74567 62.852 5.26409 62.852 6.00266V16.6125C62.852 17.3653 63.0508 17.8766 63.4484 18.1465C63.3774 18.4447 63.2425 18.7643 63.0437 19.1052C62.8449 19.4461 62.639 19.6946 62.426 19.8509C61.3894 19.8225 60.6297 19.4248 60.1469 18.6578C59.2949 19.5526 58.2724 20 57.0796 20C55.8868 20 54.9708 19.5029 54.3318 18.5087C53.6928 17.5144 53.3733 16.1509 53.3733 14.4181C53.3733 13.5659 53.4834 12.7954 53.7035 12.1065C53.9236 11.4177 54.2253 10.8318 54.6087 10.3489C54.9922 9.86596 55.443 9.49312 55.9613 9.23036C56.4796 8.9676 57.037 8.83622 57.6334 8.83622ZM58.0594 17.3156C58.6416 17.3156 59.1599 17.0386 59.6144 16.4847V11.8189C59.0321 11.478 58.5706 11.3076 58.2298 11.3076C57.2642 11.3076 56.7814 12.3728 56.7814 14.5033C56.7814 16.3782 57.2074 17.3156 58.0594 17.3156ZM69.2848 11.4993V19.6804C69.0433 19.723 68.7806 19.755 68.4966 19.7763C68.2126 19.7976 67.9215 19.8083 67.6233 19.8083C67.3251 19.8083 67.0305 19.7976 66.7393 19.7763C66.4482 19.755 66.182 19.723 65.9406 19.6804V12.6285C65.9406 11.8047 65.6069 11.3928 64.9395 11.3928H64.62C64.5348 11.1229 64.4921 10.7466 64.4921 10.2636C64.4921 9.79494 64.5348 9.39725 64.62 9.07057C64.9892 9.04217 65.33 9.01731 65.6424 8.99601C65.9548 8.9747 66.2388 8.96405 66.4944 8.96405H66.963C67.6872 8.96405 68.2552 9.1913 68.6671 9.64581C69.0789 10.1003 69.2848 10.7182 69.2848 11.4993ZM65.5572 4.76698C65.969 4.53972 66.5015 4.4261 67.1547 4.4261C67.8221 4.4261 68.3404 4.53972 68.7096 4.76698C68.88 5.15047 68.9652 5.56236 68.9652 6.00266C68.9652 6.44297 68.88 6.85486 68.7096 7.23835C68.2978 7.4514 67.7582 7.55792 67.0908 7.55792C66.4234 7.55792 65.9122 7.4514 65.5572 7.23835C65.3868 6.85486 65.3016 6.44297 65.3016 6.00266C65.3016 5.56236 65.3868 5.15047 65.5572 4.76698ZM79.4664 9.98668C80.4888 11.0093 81 12.4723 81 14.3755C81 15.2277 80.8899 16.0018 80.6698 16.6977C80.4497 17.3937 80.1302 17.9867 79.7113 18.4767C79.2924 18.9667 78.7777 19.3431 78.167 19.6059C77.5564 19.8686 76.8535 20 76.0583 20C75.2631 20 74.5637 19.8651 73.9602 19.5952C73.3567 19.3253 72.8455 18.9454 72.4266 18.4554C72.0077 17.9654 71.6917 17.3724 71.4787 16.6764C71.2657 15.9805 71.1592 15.2135 71.1592 14.3755C71.1592 13.5233 71.2657 12.7528 71.4787 12.0639C71.6917 11.3751 72.0041 10.7821 72.4159 10.285C72.8277 9.78784 73.3389 9.40435 73.9496 9.13449C74.5602 8.86463 75.2631 8.72969 76.0583 8.72969C77.4641 8.72969 78.6002 9.14869 79.4664 9.98668ZM76.0796 11.2224C75.7672 11.2224 75.5151 11.2969 75.3234 11.4461C75.1317 11.5952 74.9791 11.7976 74.8655 12.0533C74.7519 12.3089 74.6738 12.6036 74.6312 12.9374C74.5886 13.2712 74.5673 13.6298 74.5673 14.0133C74.5673 14.6099 74.585 15.1247 74.6205 15.5579C74.656 15.9911 74.727 16.3533 74.8335 16.6445C74.94 16.9356 75.0891 17.1522 75.2808 17.2943C75.4725 17.4363 75.7246 17.5073 76.037 17.5073C76.6618 17.5073 77.0736 17.2339 77.2724 16.6871C77.4712 16.1403 77.5706 15.3626 77.5706 14.3542C77.5706 13.3316 77.4712 12.5539 77.2724 12.0213C77.0736 11.4887 76.676 11.2224 76.0796 11.2224Z" fill="#7B61FF"/>
</svg>
