<svg width="700" height="320" viewBox="0 0 700 320" fill="none" xmlns="http://www.w3.org/2000/svg">
<g clip-path="url(#clip0_98_26)">
<mask id="mask0_98_26" style="mask-type:luminance" maskUnits="userSpaceOnUse" x="0" y="0" width="700" height="320">
<path d="M684 0H16C7.16344 0 0 7.16344 0 16V304C0 312.837 7.16344 320 16 320H684C692.837 320 700 312.837 700 304V16C700 7.16344 692.837 0 684 0Z" fill="white"/>
</mask>
<g mask="url(#mask0_98_26)">
<path d="M684 0H16C7.16344 0 0 7.16344 0 16V304C0 312.837 7.16344 320 16 320H684C692.837 320 700 312.837 700 304V16C700 7.16344 692.837 0 684 0Z" fill="url(#paint0_linear_98_26)"/>
<g opacity="0.8" filter="url(#filter0_f_98_26)">
<path d="M660 100C748.366 100 820 28.3656 820 -60C820 -148.366 748.366 -220 660 -220C571.634 -220 500 -148.366 500 -60C500 28.3656 571.634 100 660 100Z" fill="#00CCB1" fill-opacity="0.8"/>
</g>
<g opacity="0.8" filter="url(#filter1_f_98_26)">
<path d="M20 373C108.366 373 180 301.366 180 213C180 124.634 108.366 53 20 53C-68.3656 53 -140 124.634 -140 213C-140 301.366 -68.3656 373 20 373Z" fill="#00CCB1" fill-opacity="0.8"/>
</g>
<g opacity="0.8" filter="url(#filter2_f_98_26)">
</g>
<g opacity="0.8" filter="url(#filter3_f_98_26)">
<path d="M20 573C108.366 573 180 501.366 180 413C180 324.634 108.366 253 20 253C-68.3656 253 -140 324.634 -140 413C-140 501.366 -68.3656 573 20 573Z" fill="#00CCB1"/>
</g>
</g>
<path d="M410 162.667C410 145.505 402.411 130.092 390.424 119.576C379.908 107.589 364.495 100 347.333 100C315.72 100 290 125.72 290 157.333C290 174.491 297.587 189.901 309.569 200.417C320.085 212.408 335.501 220 352.667 220C352.779 220 352.888 219.992 353 219.992C353.112 219.992 353.221 220 353.333 220C384.629 220 410 194.629 410 163.333C410 163.221 409.992 163.112 409.992 163C409.992 162.888 410 162.779 410 162.667ZM312.437 191.161C306.777 183.191 303.411 173.483 303.341 163C303.521 135.652 325.651 113.521 353 113.341C363.483 113.411 373.192 116.777 381.161 122.437C390.299 131.297 396 143.677 396 157.333C396 184.168 374.168 206 347.333 206C333.677 206 321.297 200.299 312.437 191.161ZM291.333 157.333C291.333 126.455 316.455 101.333 347.333 101.333C360.477 101.333 372.568 105.896 382.133 113.507C373.516 108.323 363.435 105.333 352.667 105.333C321.053 105.333 295.333 131.053 295.333 162.667C295.333 173.432 298.321 183.511 303.503 192.127C295.895 182.564 291.333 170.475 291.333 157.333ZM352.667 212C339.227 212 327.031 206.593 318.127 197.847C326.359 203.805 336.451 207.333 347.333 207.333C374.904 207.333 397.333 184.904 397.333 157.333C397.333 146.451 393.805 136.359 387.847 128.127C396.593 137.031 402 149.227 402 162.667C402 189.869 379.869 212 352.667 212Z" fill="#00CCB1"/>
</g>
<defs>
<filter id="filter0_f_98_26" x="260" y="-460" width="800" height="800" filterUnits="userSpaceOnUse" color-interpolation-filters="sRGB">
<feFlood flood-opacity="0" result="BackgroundImageFix"/>
<feBlend mode="normal" in="SourceGraphic" in2="BackgroundImageFix" result="shape"/>
<feGaussianBlur stdDeviation="120" result="effect1_foregroundBlur_98_26"/>
</filter>
<filter id="filter1_f_98_26" x="-380" y="-187" width="800" height="800" filterUnits="userSpaceOnUse" color-interpolation-filters="sRGB">
<feFlood flood-opacity="0" result="BackgroundImageFix"/>
<feBlend mode="normal" in="SourceGraphic" in2="BackgroundImageFix" result="shape"/>
<feGaussianBlur stdDeviation="120" result="effect1_foregroundBlur_98_26"/>
</filter>
<filter id="filter2_f_98_26" x="260" y="80" width="800" height="800" filterUnits="userSpaceOnUse" color-interpolation-filters="sRGB">
<feFlood flood-opacity="0" result="BackgroundImageFix"/>
<feBlend mode="normal" in="SourceGraphic" in2="BackgroundImageFix" result="shape"/>
<feGaussianBlur stdDeviation="120" result="effect1_foregroundBlur_98_26"/>
</filter>
<filter id="filter3_f_98_26" x="-380" y="13" width="800" height="800" filterUnits="userSpaceOnUse" color-interpolation-filters="sRGB">
<feFlood flood-opacity="0" result="BackgroundImageFix"/>
<feBlend mode="normal" in="SourceGraphic" in2="BackgroundImageFix" result="shape"/>
<feGaussianBlur stdDeviation="120" result="effect1_foregroundBlur_98_26"/>
</filter>
<linearGradient id="paint0_linear_98_26" x1="1.27814e-05" y1="320" x2="710.784" y2="26.0793" gradientUnits="userSpaceOnUse">
<stop stop-color="#182CE2" stop-opacity="0.09"/>
<stop offset="0.729167" stop-color="#0D9373" stop-opacity="0.08"/>
</linearGradient>
<clipPath id="clip0_98_26">
<rect width="700" height="320" fill="white"/>
</clipPath>
</defs>
</svg>
