<svg width="612" height="592" viewBox="0 0 612 592" fill="none" xmlns="http://www.w3.org/2000/svg">
<path d="M552 307.378C552 234.156 519.619 168.393 468.476 123.524C423.607 72.3812 357.844 40 284.622 40C149.739 40 40 149.739 40 284.622C40 357.827 72.3698 423.579 123.496 468.447C168.364 519.608 234.139 552 307.378 552C307.856 552 308.322 551.966 308.8 551.966C309.278 551.966 309.744 552 310.222 552C443.752 552 552 443.752 552 310.222C552 309.744 551.966 309.278 551.966 308.8C551.966 308.322 552 307.856 552 307.378ZM135.733 428.955C111.583 394.947 97.2188 353.526 96.923 308.8C97.691 192.115 192.11 97.691 308.8 96.923C353.526 97.2188 394.953 111.583 428.955 135.733C467.941 173.535 492.267 226.357 492.267 284.622C492.267 399.117 399.117 492.267 284.622 492.267C226.357 492.267 173.535 467.941 135.733 428.955ZM45.6889 284.622C45.6889 152.873 152.873 45.6889 284.622 45.6889C340.703 45.6889 392.29 65.1563 433.102 97.6284C396.335 75.51 353.321 62.7556 307.378 62.7556C172.494 62.7556 62.7556 172.494 62.7556 307.378C62.7556 353.31 75.5044 396.312 97.6114 433.074C65.1506 392.273 45.6889 340.692 45.6889 284.622ZM307.378 517.867C250.034 517.867 197.998 494.798 160.007 457.479C195.13 482.903 238.19 497.956 284.622 497.956C402.257 497.956 497.956 402.257 497.956 284.622C497.956 238.19 482.903 195.13 457.479 160.007C494.798 197.998 517.867 250.034 517.867 307.378C517.867 423.443 423.443 517.867 307.378 517.867Z" fill="url(#paint0_linear_264_32)"/>
<path d="M322.88 329.32C320.107 331.667 316.48 333.587 312 335.08C307.733 336.36 302.72 337 296.96 337C289.28 337 282.88 336.04 277.76 334.12C272.853 332.2 269.653 328.893 268.16 324.2C262.187 305.427 257.28 290.28 253.44 278.76C249.6 267.027 246.613 256.787 244.48 248.04H242.88C242.24 260.627 241.707 272.147 241.28 282.6C241.067 292.84 240.853 302.867 240.64 312.68C240.64 322.493 240.427 332.413 240 342.44C239.787 352.467 239.36 363.56 238.72 375.72C235.947 376.787 232.32 377.64 227.84 378.28C223.36 379.133 218.88 379.56 214.4 379.56C205.013 379.56 197.653 378.067 192.32 375.08C187.2 372.093 184.64 366.653 184.64 358.76L193.92 195.56C195.627 192.787 199.36 189.8 205.12 186.6C210.88 183.4 218.987 181.8 229.44 181.8C240.747 181.8 249.6 183.613 256 187.24C262.4 190.653 267.093 196.307 270.08 204.2C272 209.32 274.027 215.187 276.16 221.8C278.507 228.413 280.747 235.24 282.88 242.28C285.227 249.32 287.467 256.36 289.6 263.4C291.733 270.227 293.653 276.413 295.36 281.96H296.96C302.08 264.04 307.2 246.76 312.32 230.12C317.44 213.267 322.133 199.187 326.4 187.88C329.6 186.173 333.653 184.787 338.56 183.72C343.68 182.44 349.333 181.8 355.52 181.8C365.973 181.8 374.507 183.4 381.12 186.6C387.733 189.587 391.573 193.96 392.64 199.72C393.493 203.987 394.347 210.6 395.2 219.56C396.267 228.307 397.333 238.227 398.4 249.32C399.467 260.413 400.533 272.147 401.6 284.52C402.667 296.893 403.627 308.84 404.48 320.36C405.547 331.667 406.4 342.12 407.04 351.72C407.68 361.107 408.107 368.36 408.32 373.48C404.693 375.613 400.853 377.107 396.8 377.96C392.96 379.027 387.947 379.56 381.76 379.56C373.653 379.56 366.827 378.173 361.28 375.4C355.733 372.627 352.747 367.187 352.32 359.08C351.04 335.827 350.187 314.92 349.76 296.36C349.547 277.8 349.12 262.227 348.48 249.64H346.88C344.747 257.96 341.653 268.413 337.6 281C333.547 293.587 328.64 309.693 322.88 329.32Z" fill="url(#paint1_linear_264_32)"/>
<defs>
<linearGradient id="paint0_linear_264_32" x1="611" y1="-60" x2="296" y2="552" gradientUnits="userSpaceOnUse">
<stop stop-color="#939393"/>
<stop offset="1"/>
</linearGradient>
<linearGradient id="paint1_linear_264_32" x1="295.5" y1="41" x2="295.5" y2="551" gradientUnits="userSpaceOnUse">
<stop stop-color="#787878"/>
<stop offset="1"/>
</linearGradient>
</defs>
</svg>
